<svg width="107" height="71" viewBox="0 0 107 71" fill="none" xmlns="http://www.w3.org/2000/svg">
<g clip-path="url(#clip0_3952:110535)">
<path d="M0 7.46C0 3.33996 3.33996 0 7.46 0H99.54C103.66 0 107 3.33996 107 7.46V63.54C107 67.66 103.66 71 99.54 71H7.46C3.33995 71 0 67.66 0 63.54V7.46Z" fill="#E1543E"/>
<g filter="url(#filter0_di_3952:110535)">
<path d="M0 10C0 4.47715 4.47715 0 10 0H97C102.523 0 107 4.47715 107 10V61C107 66.5228 102.523 71 97 71H10C4.47715 71 0 66.5228 0 61V10Z" fill="#E1543E"/>
</g>
<path d="M68.5048 16C68.4381 16 68.3814 15.9767 68.3348 15.93C68.2881 15.8833 68.2648 15.8267 68.2648 15.76V9.25C68.2648 9.17667 68.2848 9.11667 68.3248 9.07C68.3714 9.02333 68.4314 9 68.5048 9H71.1848C71.9848 9 72.6148 9.19 73.0748 9.57C73.5348 9.94333 73.7648 10.4933 73.7648 11.22C73.7648 11.9467 73.5348 12.4967 73.0748 12.87C72.6214 13.2367 71.9914 13.42 71.1848 13.42H69.6948V15.76C69.6948 15.8267 69.6714 15.8833 69.6248 15.93C69.5848 15.9767 69.5281 16 69.4548 16H68.5048ZM71.1348 12.31C71.5214 12.31 71.8181 12.22 72.0248 12.04C72.2314 11.8533 72.3348 11.58 72.3348 11.22C72.3348 10.8733 72.2348 10.6033 72.0348 10.41C71.8348 10.21 71.5348 10.11 71.1348 10.11H69.6748V12.31H71.1348ZM76.3391 16.1C75.9991 16.1 75.6858 16.0333 75.3991 15.9C75.1191 15.76 74.8958 15.5733 74.7291 15.34C74.5691 15.1067 74.4891 14.85 74.4891 14.57C74.4891 14.1167 74.6725 13.75 75.0391 13.47C75.4058 13.19 75.9091 13 76.5491 12.9L77.9191 12.7V12.49C77.9191 12.1967 77.8458 11.9767 77.6991 11.83C77.5525 11.6833 77.3158 11.61 76.9891 11.61C76.7691 11.61 76.5891 11.6533 76.4491 11.74C76.3158 11.82 76.2091 11.9 76.1291 11.98C76.0491 12.0667 75.9958 12.1233 75.9691 12.15C75.9425 12.23 75.8925 12.27 75.8191 12.27H75.0491C74.9891 12.27 74.9358 12.25 74.8891 12.21C74.8491 12.17 74.8291 12.1167 74.8291 12.05C74.8358 11.8833 74.9158 11.6933 75.0691 11.48C75.2291 11.2667 75.4725 11.0833 75.7991 10.93C76.1258 10.7767 76.5258 10.7 76.9991 10.7C77.7858 10.7 78.3591 10.8767 78.7191 11.23C79.0791 11.5833 79.2591 12.0467 79.2591 12.62V15.76C79.2591 15.8267 79.2358 15.8833 79.1891 15.93C79.1491 15.9767 79.0925 16 79.0191 16H78.2091C78.1425 16 78.0858 15.9767 78.0391 15.93C77.9925 15.8833 77.9691 15.8267 77.9691 15.76V15.37C77.8225 15.5833 77.6125 15.76 77.3391 15.9C77.0725 16.0333 76.7391 16.1 76.3391 16.1ZM76.6791 15.15C77.0458 15.15 77.3458 15.03 77.5791 14.79C77.8125 14.55 77.9291 14.2 77.9291 13.74V13.53L76.9291 13.69C76.5425 13.75 76.2491 13.8467 76.0491 13.98C75.8558 14.1133 75.7591 14.2767 75.7591 14.47C75.7591 14.6833 75.8491 14.85 76.0291 14.97C76.2091 15.09 76.4258 15.15 76.6791 15.15ZM81.5453 17.9C81.492 17.9 81.4453 17.88 81.4053 17.84C81.3653 17.8 81.3453 17.7533 81.3453 17.7C81.3453 17.64 81.3586 17.5867 81.3853 17.54L82.1653 15.69L80.2453 11.16C80.2186 11.1 80.2053 11.0533 80.2053 11.02C80.212 10.96 80.2353 10.91 80.2753 10.87C80.3153 10.8233 80.3653 10.8 80.4253 10.8H81.2353C81.362 10.8 81.452 10.8633 81.5053 10.99L82.8353 14.26L84.2053 10.99C84.2586 10.8633 84.3486 10.8 84.4753 10.8H85.2753C85.3286 10.8 85.3753 10.82 85.4153 10.86C85.462 10.9 85.4853 10.9467 85.4853 11C85.4853 11.0467 85.472 11.1 85.4453 11.16L82.6153 17.71C82.5553 17.8367 82.462 17.9 82.3353 17.9H81.5453ZM86.7875 16C86.7208 16 86.6642 15.9767 86.6175 15.93C86.5708 15.8833 86.5475 15.8267 86.5475 15.76V11.05C86.5475 10.9833 86.5708 10.9267 86.6175 10.88C86.6642 10.8267 86.7208 10.8 86.7875 10.8H87.5975C87.6708 10.8 87.7308 10.8233 87.7775 10.87C87.8242 10.9167 87.8475 10.9767 87.8475 11.05V11.46C88.0075 11.2467 88.2075 11.0833 88.4475 10.97C88.6942 10.8567 88.9742 10.8 89.2875 10.8H89.6975C89.7708 10.8 89.8275 10.8233 89.8675 10.87C89.9142 10.91 89.9375 10.9667 89.9375 11.04V11.76C89.9375 11.8267 89.9142 11.8833 89.8675 11.93C89.8275 11.9767 89.7708 12 89.6975 12H88.9175C88.6042 12 88.3575 12.09 88.1775 12.27C87.9975 12.45 87.9075 12.6967 87.9075 13.01V15.76C87.9075 15.8267 87.8842 15.8833 87.8375 15.93C87.7908 15.9767 87.7308 16 87.6575 16H86.7875ZM93.1491 16.1C92.3691 16.1 91.7657 15.9 91.3391 15.5C90.9124 15.0933 90.6824 14.54 90.6491 13.84L90.6391 13.4L90.6491 12.96C90.6824 12.2667 90.9157 11.7167 91.3491 11.31C91.7824 10.9033 92.3824 10.7 93.1491 10.7C93.9157 10.7 94.5157 10.9033 94.9491 11.31C95.3824 11.7167 95.6157 12.2667 95.6491 12.96C95.6557 13.04 95.6591 13.1867 95.6591 13.4C95.6591 13.6133 95.6557 13.76 95.6491 13.84C95.6157 14.54 95.3857 15.0933 94.9591 15.5C94.5324 15.9 93.9291 16.1 93.1491 16.1ZM93.1491 15.11C93.5024 15.11 93.7757 15 93.9691 14.78C94.1624 14.5533 94.2691 14.2233 94.2891 13.79C94.2957 13.7233 94.2991 13.5933 94.2991 13.4C94.2991 13.2067 94.2957 13.0767 94.2891 13.01C94.2691 12.5767 94.1624 12.25 93.9691 12.03C93.7757 11.8033 93.5024 11.69 93.1491 11.69C92.7957 11.69 92.5224 11.8033 92.3291 12.03C92.1357 12.25 92.0291 12.5767 92.0091 13.01L91.9991 13.4L92.0091 13.79C92.0291 14.2233 92.1357 14.5533 92.3291 14.78C92.5224 15 92.7957 15.11 93.1491 15.11ZM97.217 16C97.1504 16 97.0937 15.9767 97.047 15.93C97.0004 15.8833 96.977 15.8267 96.977 15.76V9.14C96.977 9.06667 97.0004 9.01 97.047 8.97C97.0937 8.92333 97.1504 8.9 97.217 8.9H98.047C98.1204 8.9 98.177 8.92333 98.217 8.97C98.2637 9.01 98.287 9.06667 98.287 9.14V15.76C98.287 15.8267 98.2637 15.8833 98.217 15.93C98.177 15.9767 98.1204 16 98.047 16H97.217ZM100.064 16C99.9968 16 99.9402 15.9767 99.8935 15.93C99.8468 15.8833 99.8235 15.8267 99.8235 15.76V9.14C99.8235 9.06667 99.8468 9.01 99.8935 8.97C99.9402 8.92333 99.9968 8.9 100.064 8.9H100.894C100.967 8.9 101.024 8.92333 101.064 8.97C101.11 9.01 101.134 9.06667 101.134 9.14V15.76C101.134 15.8267 101.11 15.8833 101.064 15.93C101.024 15.9767 100.967 16 100.894 16H100.064Z" fill="#F7F7FA"/>
<path opacity="0.83" fill-rule="evenodd" clip-rule="evenodd" d="M98.2027 43.7569C98.2027 52.9605 90.6971 60.4215 81.4384 60.4215C72.1798 60.4215 64.6742 52.9605 64.6742 43.7569C64.6742 34.5533 72.1798 27.0923 81.4384 27.0923C90.6971 27.0923 98.2027 34.5533 98.2027 43.7569ZM86.5608 34.5635L88.4023 38.273C88.8111 39.0932 89.5986 39.6636 90.5062 39.794L94.6242 40.3905C95.5805 40.5285 95.9593 41.6954 95.2692 42.3627L92.2914 45.2482C91.6313 45.8858 91.3313 46.8066 91.4888 47.7088L92.1939 51.7836C92.3552 52.7305 91.3576 53.4501 90.5062 53.0027L86.8234 51.079C86.0095 50.654 85.0344 50.654 84.2206 51.079L80.5377 53.0027C79.6826 53.4501 78.685 52.7268 78.85 51.7836L79.5551 47.7088C79.7089 46.8066 79.4088 45.8858 78.7525 45.2482L75.7747 42.3627C75.0846 41.6916 75.4634 40.5285 76.4198 40.3905L80.5377 39.794C81.449 39.6636 82.2366 39.0932 82.6417 38.273L84.4831 34.5635C84.8994 33.706 86.1333 33.706 86.5608 34.5635Z" fill="white"/>
<path opacity="0.79" fill-rule="evenodd" clip-rule="evenodd" d="M91.2297 53.1243C88.2127 57.529 83.1275 60.4215 77.3626 60.4215C68.104 60.4215 60.5984 52.9605 60.5984 43.7569C60.5984 34.5533 68.104 27.0923 77.3626 27.0923C85.4165 27.0923 92.1438 32.7379 93.7583 40.2651L90.5062 39.794C89.5986 39.6636 88.8111 39.0932 88.4023 38.273L86.5608 34.5635C86.1333 33.706 84.8994 33.706 84.4831 34.5635L82.6417 38.273C82.2366 39.0932 81.449 39.6636 80.5377 39.794L76.4198 40.3905C75.4634 40.5285 75.0846 41.6916 75.7747 42.3627L78.7525 45.2482C79.4088 45.8858 79.7089 46.8066 79.5551 47.7088L78.85 51.7836C78.685 52.7268 79.6826 53.4501 80.5377 53.0027L84.2206 51.079C85.0344 50.654 86.0095 50.654 86.8234 51.079L90.5062 53.0027C90.7455 53.1284 90.9963 53.162 91.2297 53.1243ZM92.1611 51.594C93.4157 49.2579 94.1269 46.59 94.1269 43.7569C94.1269 43.6617 94.1261 43.5668 94.1245 43.472L92.2914 45.2482C91.6313 45.8858 91.3313 46.8066 91.4888 47.7088L92.1611 51.594Z" fill="white"/>
<path opacity="0.75" fill-rule="evenodd" clip-rule="evenodd" d="M88.0243 51.7063C85.1844 56.8978 79.6495 60.4215 73.2867 60.4215C64.0281 60.4215 56.5225 52.9605 56.5225 43.7569C56.5225 34.5533 64.0281 27.0923 73.2867 27.0923C81.0407 27.0923 87.5651 32.3253 89.4809 39.4324C89.0235 39.1612 88.6457 38.7614 88.4023 38.273L86.5608 34.5635C86.1333 33.706 84.8994 33.706 84.4831 34.5635L82.6417 38.273C82.2366 39.0932 81.449 39.6636 80.5377 39.794L76.4198 40.3905C75.4634 40.5285 75.0846 41.6916 75.7747 42.3627L78.7525 45.2482C79.4088 45.8858 79.7089 46.8066 79.5551 47.7088L78.85 51.7836C78.685 52.7268 79.6826 53.4501 80.5377 53.0027L84.2206 51.079C85.0344 50.654 86.0095 50.654 86.8234 51.079L88.0243 51.7063Z" fill="white"/>
<path opacity="0.69" fill-rule="evenodd" clip-rule="evenodd" d="M84.292 51.043C81.5723 56.5953 75.841 60.4215 69.2108 60.4215C59.9521 60.4215 52.4465 52.9605 52.4465 43.7569C52.4465 34.5533 59.9521 27.0923 69.2108 27.0923C75.5413 27.0923 81.0522 30.5803 83.9048 35.7284L82.6417 38.273C82.2366 39.0932 81.449 39.6636 80.5377 39.794L76.4198 40.3905C75.4634 40.5285 75.0846 41.6916 75.7747 42.3627L78.7525 45.2482C79.4088 45.8858 79.7089 46.8066 79.5551 47.7088L78.85 51.7836C78.685 52.7268 79.6826 53.4501 80.5377 53.0027L84.2206 51.079C84.2443 51.0666 84.2681 51.0546 84.292 51.043Z" fill="white"/>
<path opacity="0.65" fill-rule="evenodd" clip-rule="evenodd" d="M79.202 52.8252C76.213 57.3976 71.0292 60.4215 65.1348 60.4215C55.8762 60.4215 48.3706 52.9605 48.3706 43.7569C48.3706 34.5533 55.8762 27.0923 65.1348 27.0923C72.9292 27.0923 79.4811 32.3799 81.3586 39.5435C81.1029 39.6671 80.8265 39.7527 80.5377 39.794L76.4198 40.3905C75.4634 40.5285 75.0846 41.6916 75.7747 42.3627L78.7525 45.2482C79.4088 45.8858 79.7089 46.8066 79.5551 47.7088L78.85 51.7836C78.7769 52.2016 78.9321 52.5764 79.202 52.8252Z" fill="white"/>
<path opacity="0.64" fill-rule="evenodd" clip-rule="evenodd" d="M77.8131 44.338C77.5051 53.2725 70.1219 60.4215 61.0589 60.4215C51.8003 60.4215 44.2947 52.9605 44.2947 43.7569C44.2947 34.5533 51.8003 27.0923 61.0589 27.0923C69.1043 27.0923 75.826 32.726 77.4494 40.2414L76.4198 40.3905C75.4634 40.5285 75.0846 41.6916 75.7747 42.3627L77.8131 44.338Z" fill="white"/>
<path opacity="0.52" d="M56.983 60.4215C66.2416 60.4215 73.7472 52.9605 73.7472 43.7569C73.7472 34.5533 66.2416 27.0923 56.983 27.0923C47.7244 27.0923 40.2188 34.5533 40.2188 43.7569C40.2188 52.9605 47.7244 60.4215 56.983 60.4215Z" fill="white"/>
<path opacity="0.52" d="M52.9071 60.4215C62.1657 60.4215 69.6713 52.9605 69.6713 43.7569C69.6713 34.5533 62.1657 27.0923 52.9071 27.0923C43.6484 27.0923 36.1428 34.5533 36.1428 43.7569C36.1428 52.9605 43.6484 60.4215 52.9071 60.4215Z" fill="white"/>
<path opacity="0.5" d="M48.8311 60.4215C58.0898 60.4215 65.5954 52.9605 65.5954 43.7569C65.5954 34.5533 58.0898 27.0923 48.8311 27.0923C39.5725 27.0923 32.0669 34.5533 32.0669 43.7569C32.0669 52.9605 39.5725 60.4215 48.8311 60.4215Z" fill="white"/>
<path opacity="0.49" d="M44.7553 60.4215C54.0139 60.4215 61.5195 52.9605 61.5195 43.7569C61.5195 34.5533 54.0139 27.0923 44.7553 27.0923C35.4966 27.0923 27.991 34.5533 27.991 43.7569C27.991 52.9605 35.4966 60.4215 44.7553 60.4215Z" fill="white"/>
<path opacity="0.44" d="M40.6793 60.4215C49.938 60.4215 57.4436 52.9605 57.4436 43.7569C57.4436 34.5533 49.938 27.0923 40.6793 27.0923C31.4207 27.0923 23.9151 34.5533 23.9151 43.7569C23.9151 52.9605 31.4207 60.4215 40.6793 60.4215Z" fill="white"/>
<path opacity="0.4" d="M36.6034 60.4215C45.862 60.4215 53.3676 52.9605 53.3676 43.7569C53.3676 34.5533 45.862 27.0923 36.6034 27.0923C27.3448 27.0923 19.8392 34.5533 19.8392 43.7569C19.8392 52.9605 27.3448 60.4215 36.6034 60.4215Z" fill="white"/>
<path opacity="0.29" d="M32.5275 60.4215C41.7861 60.4215 49.2917 52.9605 49.2917 43.7569C49.2917 34.5533 41.7861 27.0923 32.5275 27.0923C23.2688 27.0923 15.7632 34.5533 15.7632 43.7569C15.7632 52.9605 23.2688 60.4215 32.5275 60.4215Z" fill="white"/>
<path opacity="0.27" d="M28.4519 60.4215C37.7105 60.4215 45.2161 52.9605 45.2161 43.7569C45.2161 34.5533 37.7105 27.0923 28.4519 27.0923C19.1932 27.0923 11.6876 34.5533 11.6876 43.7569C11.6876 52.9605 19.1932 60.4215 28.4519 60.4215Z" fill="white"/>
<path opacity="0.25" d="M24.376 60.4215C33.6346 60.4215 41.1402 52.9605 41.1402 43.7569C41.1402 34.5533 33.6346 27.0923 24.376 27.0923C15.1173 27.0923 7.61172 34.5533 7.61172 43.7569C7.61172 52.9605 15.1173 60.4215 24.376 60.4215Z" fill="white"/>
<path opacity="0.25" d="M20.3001 60.4215C29.5587 60.4215 37.0643 52.9605 37.0643 43.7569C37.0643 34.5533 29.5587 27.0923 20.3001 27.0923C11.0414 27.0923 3.53583 34.5533 3.53583 43.7569C3.53583 52.9605 11.0414 60.4215 20.3001 60.4215Z" fill="white"/>
<path opacity="0.22" d="M16.2241 60.4215C25.4828 60.4215 32.9884 52.9605 32.9884 43.7569C32.9884 34.5533 25.4828 27.0923 16.2241 27.0923C6.9655 27.0923 -0.5401 34.5533 -0.5401 43.7569C-0.5401 52.9605 6.9655 60.4215 16.2241 60.4215Z" fill="white"/>
<path opacity="0.14" d="M12.1482 60.4215C21.4068 60.4215 28.9124 52.9605 28.9124 43.7569C28.9124 34.5533 21.4068 27.0923 12.1482 27.0923C2.88957 27.0923 -4.61603 34.5533 -4.61603 43.7569C-4.61603 52.9605 2.88957 60.4215 12.1482 60.4215Z" fill="white"/>
<path opacity="0.06" d="M8.07231 60.4215C17.3309 60.4215 24.8365 52.9605 24.8365 43.7569C24.8365 34.5533 17.3309 27.0923 8.07231 27.0923C-1.18632 27.0923 -8.69193 34.5533 -8.69193 43.7569C-8.69193 52.9605 -1.18632 60.4215 8.07231 60.4215Z" fill="white"/>
<path opacity="0.03" d="M3.99641 60.4215C13.255 60.4215 20.7606 52.9605 20.7606 43.7569C20.7606 34.5533 13.255 27.0923 3.99641 27.0923C-5.26222 27.0923 -12.7678 34.5533 -12.7678 43.7569C-12.7678 52.9605 -5.26222 60.4215 3.99641 60.4215Z" fill="white"/>
<path opacity="0.95" fill-rule="evenodd" clip-rule="evenodd" d="M102.279 43.7569C102.279 52.9605 94.773 60.4215 85.5144 60.4215C76.2557 60.4215 68.7501 52.9605 68.7501 43.7569C68.7501 34.5533 76.2557 27.0923 85.5144 27.0923C94.773 27.0923 102.279 34.5533 102.279 43.7569ZM88.4022 38.2729L86.5608 34.5634C86.1332 33.706 84.8993 33.706 84.4831 34.5634L82.6416 38.2729C82.2366 39.0931 81.449 39.6635 80.5376 39.794L76.4197 40.3905C75.4634 40.5284 75.0846 41.6916 75.7747 42.3626L78.7525 45.2482C79.4088 45.8857 79.7088 46.8065 79.555 47.7087L78.85 51.7835C78.685 52.7267 79.6826 53.45 80.5376 53.0026L84.2205 51.0789C85.0344 50.6539 86.0095 50.6539 86.8233 51.0789L90.5062 53.0026C91.3575 53.45 92.3551 52.7305 92.1938 51.7835L91.4888 47.7087C91.3313 46.8065 91.6313 45.8857 92.2914 45.2482L95.2692 42.3626C95.9592 41.6953 95.5804 40.5284 94.6241 40.3905L90.5062 39.794C89.5986 39.6635 88.811 39.0931 88.4022 38.2729Z" fill="white"/>
<g clip-path="url(#clip1_3952:110535)">
<path d="M34.6884 8.33955V9.63589H34.4337C32.701 9.63589 30.9546 10.9467 30.9546 13.8865V17.7032H29.8061V8.47642H30.9546V10.4471C31.766 9.08508 33.1131 8.28837 34.5225 8.33176L34.6884 8.33955Z" fill="white"/>
<path d="M39.4249 8.26953C37.0888 8.26953 35.2621 10.377 35.2621 13.0699V13.1055C35.2621 15.8406 37.1089 17.9058 39.559 17.9058C41.4133 17.9058 42.4571 16.9889 43.1671 16.1855L43.2876 16.0442L42.4709 15.2831L42.3504 15.4166C41.5475 16.3257 40.6705 16.7485 39.5865 16.7485C37.9404 16.7485 36.6821 15.4722 36.4813 13.6184H43.4292L43.4492 13.456C43.463 13.308 43.463 13.2512 43.463 13.0899C43.4609 10.2502 41.801 8.26953 39.4249 8.26953ZM36.4792 12.4912C36.6937 10.6942 37.8918 9.41119 39.3974 9.41119C41.258 9.41119 42.0747 11.0258 42.2289 12.4912H36.4792Z" fill="white"/>
<path d="M18.1345 12.1384V17.7031H16.9839V12.2407C16.9839 10.4348 16.1365 9.3966 14.6553 9.3966C13.4571 9.3966 12.1682 10.3179 12.1682 12.3498V17.7031H11.0123V12.1896C11.0123 10.5716 10.241 9.53458 8.9869 9.41107C8.92562 9.3966 8.86328 9.3966 8.80095 9.3966H8.72488C7.2922 9.43221 6.47232 10.4637 6.47232 12.2407V17.7031H5.32175V12.1384C5.32175 9.77382 6.65827 8.25049 8.73227 8.25049C8.76608 8.25049 8.80095 8.25049 8.83581 8.25828C9.58701 8.27274 10.2421 8.48973 10.7989 8.91145C10.8823 8.96931 10.9574 9.03385 11.0334 9.10729C11.3303 9.39104 11.5437 9.7026 11.6948 9.97856C11.7086 9.9641 11.716 9.94184 11.7297 9.92738C12.4513 8.81576 13.4582 8.25049 14.725 8.25049C16.799 8.25049 18.1345 9.77382 18.1345 12.1384Z" fill="white"/>
<path d="M23.8799 8.08252C21.2713 8.08252 19.1572 10.3091 19.1572 13.0564C19.1572 15.8027 21.2713 18.0303 23.8799 18.0303C26.4875 18.0303 28.6027 15.8027 28.6027 13.0564C28.6027 10.3091 26.4875 8.08252 23.8799 8.08252ZM26.627 12.6403L25.7881 13.5015C25.6021 13.6918 25.5176 13.9666 25.562 14.2359L25.7595 15.4533C25.806 15.7348 25.5239 15.9506 25.2841 15.8171L24.2466 15.243C24.0173 15.115 23.7426 15.115 23.5133 15.243L22.4758 15.8171C22.2349 15.9506 21.9539 15.7348 21.9993 15.4533L22.1979 14.2359C22.2412 13.9666 22.1567 13.6918 21.9708 13.5015L21.1319 12.6403C20.9375 12.44 21.0442 12.0917 21.3136 12.0505L22.4737 11.8736C22.7304 11.8335 22.9523 11.6644 23.0664 11.4196L23.5852 10.3124C23.7056 10.0554 24.0532 10.0554 24.1737 10.3124L24.6924 11.4196C24.8076 11.6644 25.0295 11.8335 25.2862 11.8736L26.4452 12.0505C26.7147 12.0917 26.8224 12.44 26.627 12.6403Z" fill="white"/>
</g>
</g>
<defs>
<filter id="filter0_di_3952:110535" x="-3.575" y="-1.7875" width="114.15" height="78.15" filterUnits="userSpaceOnUse" color-interpolation-filters="sRGB">
<feFlood flood-opacity="0" result="BackgroundImageFix"/>
<feColorMatrix in="SourceAlpha" type="matrix" values="0 0 0 0 0 0 0 0 0 0 0 0 0 0 0 0 0 0 127 0" result="hardAlpha"/>
<feOffset dy="1.7875"/>
<feGaussianBlur stdDeviation="1.7875"/>
<feColorMatrix type="matrix" values="0 0 0 0 0.890196 0 0 0 0 0.372549 0 0 0 0 0.286275 0 0 0 0.3 0"/>
<feBlend mode="normal" in2="BackgroundImageFix" result="effect1_dropShadow_3952:110535"/>
<feBlend mode="normal" in="SourceGraphic" in2="effect1_dropShadow_3952:110535" result="shape"/>
<feColorMatrix in="SourceAlpha" type="matrix" values="0 0 0 0 0 0 0 0 0 0 0 0 0 0 0 0 0 0 127 0" result="hardAlpha"/>
<feOffset dy="-1.24348"/>
<feGaussianBlur stdDeviation="0.155435"/>
<feComposite in2="hardAlpha" operator="arithmetic" k2="-1" k3="1"/>
<feColorMatrix type="matrix" values="0 0 0 0 0.882353 0 0 0 0 0.337255 0 0 0 0 0.25098 0 0 0 0.5 0"/>
<feBlend mode="normal" in2="shape" result="effect2_innerShadow_3952:110535"/>
</filter>
<clipPath id="clip0_3952:110535">
<path d="M0 7.46C0 3.33996 3.33996 0 7.46 0H99.54C103.66 0 107 3.33996 107 7.46V63.54C107 67.66 103.66 71 99.54 71H7.46C3.33995 71 0 67.66 0 63.54V7.46Z" fill="white"/>
</clipPath>
<clipPath id="clip1_3952:110535">
<rect width="38.1391" height="9.94783" fill="white" transform="translate(5.32175 8.08252)"/>
</clipPath>
</defs>
</svg>
