<svg width="109" height="73" viewBox="0 0 109 73" fill="none" xmlns="http://www.w3.org/2000/svg">
<rect x="1" y="1" width="107.25" height="71.5" rx="7.46087" stroke="#B4B4BB" stroke-linecap="round" stroke-dasharray="2 4"/>
<path d="M39.568 42.16C38.576 42.16 37.7333 41.9893 37.04 41.648C36.3573 41.296 35.8347 40.8 35.472 40.16C35.1093 39.5093 34.9067 38.7307 34.864 37.824C34.8533 37.3867 34.848 36.9173 34.848 36.416C34.848 35.9147 34.8533 35.4347 34.864 34.976C34.9067 34.08 35.1093 33.3067 35.472 32.656C35.8453 32.0053 36.3733 31.5093 37.056 31.168C37.7493 30.816 38.5867 30.64 39.568 30.64C40.2933 30.64 40.944 30.736 41.52 30.928C42.096 31.12 42.5867 31.3867 42.992 31.728C43.3973 32.0587 43.712 32.448 43.936 32.896C44.16 33.344 44.2773 33.8293 44.288 34.352C44.2987 34.448 44.2667 34.528 44.192 34.592C44.128 34.656 44.048 34.688 43.952 34.688H42.432C42.3147 34.688 42.2187 34.6613 42.144 34.608C42.0693 34.544 42.016 34.4427 41.984 34.304C41.8133 33.6 41.52 33.12 41.104 32.864C40.688 32.608 40.1707 32.48 39.552 32.48C38.8373 32.48 38.2667 32.6827 37.84 33.088C37.4133 33.4827 37.184 34.1387 37.152 35.056C37.12 35.9307 37.12 36.8267 37.152 37.744C37.184 38.6613 37.4133 39.3227 37.84 39.728C38.2667 40.1227 38.8373 40.32 39.552 40.32C40.1707 40.32 40.688 40.192 41.104 39.936C41.52 39.6693 41.8133 39.1893 41.984 38.496C42.016 38.3467 42.0693 38.2453 42.144 38.192C42.2187 38.1387 42.3147 38.112 42.432 38.112H43.952C44.048 38.112 44.128 38.144 44.192 38.208C44.2667 38.272 44.2987 38.352 44.288 38.448C44.2773 38.9707 44.16 39.456 43.936 39.904C43.712 40.352 43.3973 40.7467 42.992 41.088C42.5867 41.4187 42.096 41.68 41.52 41.872C40.944 42.064 40.2933 42.16 39.568 42.16ZM46.8895 42C46.7828 42 46.6922 41.9627 46.6175 41.888C46.5428 41.8133 46.5055 41.7227 46.5055 41.616V31.2C46.5055 31.0827 46.5428 30.9867 46.6175 30.912C46.6922 30.8373 46.7828 30.8 46.8895 30.8H51.1775C52.0095 30.8 52.7348 30.9333 53.3535 31.2C53.9722 31.456 54.4522 31.8507 54.7935 32.384C55.1348 32.9067 55.3055 33.5627 55.3055 34.352C55.3055 35.152 55.1348 35.8133 54.7935 36.336C54.4522 36.848 53.9722 37.232 53.3535 37.488C52.7348 37.744 52.0095 37.872 51.1775 37.872H48.7935V41.616C48.7935 41.7227 48.7562 41.8133 48.6815 41.888C48.6175 41.9627 48.5268 42 48.4095 42H46.8895ZM48.7615 36.096H51.0975C51.7162 36.096 52.1908 35.952 52.5215 35.664C52.8522 35.3653 53.0175 34.928 53.0175 34.352C53.0175 33.8187 52.8628 33.392 52.5535 33.072C52.2442 32.7413 51.7588 32.576 51.0975 32.576H48.7615V36.096ZM59.4245 42.16C58.8698 42.16 58.3685 42.0533 57.9205 41.84C57.4725 41.616 57.1152 41.3227 56.8485 40.96C56.5925 40.5867 56.4645 40.1707 56.4645 39.712C56.4645 38.9653 56.7632 38.3733 57.3605 37.936C57.9685 37.488 58.7685 37.1893 59.7605 37.04L61.9525 36.72V36.384C61.9525 35.936 61.8405 35.5893 61.6165 35.344C61.3925 35.0987 61.0085 34.976 60.4645 34.976C60.0805 34.976 59.7658 35.056 59.5205 35.216C59.2858 35.3653 59.1098 35.568 58.9925 35.824C58.9072 35.9627 58.7845 36.032 58.6245 36.032H57.3605C57.2432 36.032 57.1525 36 57.0885 35.936C57.0352 35.872 57.0085 35.7867 57.0085 35.68C57.0192 35.5093 57.0885 35.3013 57.2165 35.056C57.3445 34.8107 57.5472 34.576 57.8245 34.352C58.1018 34.1173 58.4592 33.92 58.8965 33.76C59.3338 33.6 59.8618 33.52 60.4805 33.52C61.1525 33.52 61.7178 33.6053 62.1765 33.776C62.6458 33.936 63.0192 34.1547 63.2965 34.432C63.5738 34.7093 63.7765 35.0347 63.9045 35.408C64.0325 35.7813 64.0965 36.176 64.0965 36.592V41.616C64.0965 41.7227 64.0592 41.8133 63.9845 41.888C63.9098 41.9627 63.8192 42 63.7125 42H62.4165C62.2992 42 62.2032 41.9627 62.1285 41.888C62.0645 41.8133 62.0325 41.7227 62.0325 41.616V40.992C61.8938 41.1947 61.7072 41.3867 61.4725 41.568C61.2378 41.7387 60.9498 41.8827 60.6085 42C60.2778 42.1067 59.8832 42.16 59.4245 42.16ZM59.9685 40.64C60.3418 40.64 60.6778 40.56 60.9765 40.4C61.2858 40.24 61.5258 39.9947 61.6965 39.664C61.8778 39.3227 61.9685 38.896 61.9685 38.384V38.048L60.3685 38.304C59.7392 38.4 59.2698 38.5547 58.9605 38.768C58.6512 38.9813 58.4965 39.2427 58.4965 39.552C58.4965 39.7867 58.5658 39.9893 58.7045 40.16C58.8538 40.32 59.0405 40.4427 59.2645 40.528C59.4885 40.6027 59.7232 40.64 59.9685 40.64ZM67.7544 45.04C67.669 45.04 67.5944 45.008 67.5304 44.944C67.4664 44.88 67.4344 44.8053 67.4344 44.72C67.4344 44.6773 67.4344 44.6347 67.4344 44.592C67.445 44.56 67.4664 44.5173 67.4984 44.464L68.7464 41.504L65.6744 34.256C65.6317 34.1493 65.6104 34.0747 65.6104 34.032C65.621 33.936 65.6584 33.856 65.7224 33.792C65.7864 33.7173 65.8664 33.68 65.9624 33.68H67.2584C67.3864 33.68 67.4824 33.712 67.5464 33.776C67.6104 33.84 67.6584 33.9093 67.6904 33.984L69.8184 39.216L72.0104 33.984C72.0424 33.8987 72.0904 33.8293 72.1544 33.776C72.2184 33.712 72.3144 33.68 72.4424 33.68H73.7224C73.8077 33.68 73.8824 33.712 73.9464 33.776C74.021 33.84 74.0584 33.9147 74.0584 34C74.0584 34.064 74.037 34.1493 73.9944 34.256L69.4664 44.736C69.4237 44.8213 69.3704 44.8907 69.3064 44.944C69.2424 45.008 69.1464 45.04 69.0184 45.04H67.7544Z" fill="#B4B4BB"/>
</svg>
