<svg width="107" height="71" viewBox="0 0 107 71" fill="none" xmlns="http://www.w3.org/2000/svg">
<g clip-path="url(#clip0_3952:90824)">
<path d="M0 7.46C0 3.33996 3.33996 0 7.46 0H99.54C103.66 0 107 3.33996 107 7.46V63.54C107 67.66 103.66 71 99.54 71H7.46C3.33995 71 0 67.66 0 63.54V7.46Z" fill="#FF8337"/>
<path opacity="0.83" fill-rule="evenodd" clip-rule="evenodd" d="M98.2027 43.7569C98.2027 52.9605 90.6971 60.4215 81.4384 60.4215C72.1798 60.4215 64.6742 52.9605 64.6742 43.7569C64.6742 34.5533 72.1798 27.0923 81.4384 27.0923C90.6971 27.0923 98.2027 34.5533 98.2027 43.7569ZM86.5608 34.5635L88.4023 38.273C88.8111 39.0932 89.5986 39.6636 90.5062 39.794L94.6242 40.3905C95.5805 40.5285 95.9593 41.6954 95.2692 42.3627L92.2914 45.2482C91.6313 45.8858 91.3313 46.8066 91.4888 47.7088L92.1939 51.7836C92.3552 52.7305 91.3576 53.4501 90.5062 53.0027L86.8234 51.079C86.0095 50.654 85.0344 50.654 84.2206 51.079L80.5377 53.0027C79.6826 53.4501 78.685 52.7268 78.85 51.7836L79.5551 47.7088C79.7089 46.8066 79.4088 45.8858 78.7525 45.2482L75.7747 42.3627C75.0846 41.6916 75.4634 40.5285 76.4198 40.3905L80.5377 39.794C81.449 39.6636 82.2366 39.0932 82.6417 38.273L84.4831 34.5635C84.8994 33.706 86.1333 33.706 86.5608 34.5635Z" fill="white"/>
<path opacity="0.79" fill-rule="evenodd" clip-rule="evenodd" d="M91.2297 53.1243C88.2127 57.529 83.1275 60.4215 77.3626 60.4215C68.104 60.4215 60.5984 52.9605 60.5984 43.7569C60.5984 34.5533 68.104 27.0923 77.3626 27.0923C85.4165 27.0923 92.1438 32.7379 93.7583 40.2651L90.5062 39.794C89.5986 39.6636 88.8111 39.0932 88.4023 38.273L86.5608 34.5635C86.1333 33.706 84.8994 33.706 84.4831 34.5635L82.6417 38.273C82.2366 39.0932 81.449 39.6636 80.5377 39.794L76.4198 40.3905C75.4634 40.5285 75.0846 41.6916 75.7747 42.3627L78.7525 45.2482C79.4088 45.8858 79.7089 46.8066 79.5551 47.7088L78.85 51.7836C78.685 52.7268 79.6826 53.4501 80.5377 53.0027L84.2206 51.079C85.0344 50.654 86.0095 50.654 86.8234 51.079L90.5062 53.0027C90.7455 53.1284 90.9963 53.162 91.2297 53.1243ZM92.1611 51.594C93.4157 49.2579 94.1269 46.59 94.1269 43.7569C94.1269 43.6617 94.1261 43.5668 94.1245 43.472L92.2914 45.2482C91.6313 45.8858 91.3313 46.8066 91.4888 47.7088L92.1611 51.594Z" fill="white"/>
<path opacity="0.75" fill-rule="evenodd" clip-rule="evenodd" d="M88.0243 51.7063C85.1844 56.8978 79.6495 60.4215 73.2867 60.4215C64.0281 60.4215 56.5225 52.9605 56.5225 43.7569C56.5225 34.5533 64.0281 27.0923 73.2867 27.0923C81.0407 27.0923 87.5651 32.3253 89.4809 39.4324C89.0235 39.1612 88.6457 38.7614 88.4023 38.273L86.5608 34.5635C86.1333 33.706 84.8994 33.706 84.4831 34.5635L82.6417 38.273C82.2366 39.0932 81.449 39.6636 80.5377 39.794L76.4198 40.3905C75.4634 40.5285 75.0846 41.6916 75.7747 42.3627L78.7525 45.2482C79.4088 45.8858 79.7089 46.8066 79.5551 47.7088L78.85 51.7836C78.685 52.7268 79.6826 53.4501 80.5377 53.0027L84.2206 51.079C85.0344 50.654 86.0095 50.654 86.8234 51.079L88.0243 51.7063Z" fill="white"/>
<path opacity="0.69" fill-rule="evenodd" clip-rule="evenodd" d="M84.292 51.043C81.5723 56.5953 75.841 60.4215 69.2108 60.4215C59.9521 60.4215 52.4465 52.9605 52.4465 43.7569C52.4465 34.5533 59.9521 27.0923 69.2108 27.0923C75.5413 27.0923 81.0522 30.5803 83.9048 35.7284L82.6417 38.273C82.2366 39.0932 81.449 39.6636 80.5377 39.794L76.4198 40.3905C75.4634 40.5285 75.0846 41.6916 75.7747 42.3627L78.7525 45.2482C79.4088 45.8858 79.7089 46.8066 79.5551 47.7088L78.85 51.7836C78.685 52.7268 79.6826 53.4501 80.5377 53.0027L84.2206 51.079C84.2443 51.0666 84.2681 51.0546 84.292 51.043Z" fill="white"/>
<path opacity="0.65" fill-rule="evenodd" clip-rule="evenodd" d="M79.202 52.8252C76.213 57.3976 71.0292 60.4215 65.1348 60.4215C55.8762 60.4215 48.3706 52.9605 48.3706 43.7569C48.3706 34.5533 55.8762 27.0923 65.1348 27.0923C72.9292 27.0923 79.4811 32.3799 81.3586 39.5435C81.1029 39.6671 80.8265 39.7527 80.5377 39.794L76.4198 40.3905C75.4634 40.5285 75.0846 41.6916 75.7747 42.3627L78.7525 45.2482C79.4088 45.8858 79.7089 46.8066 79.5551 47.7088L78.85 51.7836C78.7769 52.2016 78.9321 52.5764 79.202 52.8252Z" fill="white"/>
<path opacity="0.64" fill-rule="evenodd" clip-rule="evenodd" d="M77.8131 44.338C77.5051 53.2725 70.1219 60.4215 61.0589 60.4215C51.8003 60.4215 44.2947 52.9605 44.2947 43.7569C44.2947 34.5533 51.8003 27.0923 61.0589 27.0923C69.1043 27.0923 75.826 32.726 77.4494 40.2414L76.4198 40.3905C75.4634 40.5285 75.0846 41.6916 75.7747 42.3627L77.8131 44.338Z" fill="white"/>
<path opacity="0.52" d="M56.983 60.4215C66.2416 60.4215 73.7472 52.9605 73.7472 43.7569C73.7472 34.5533 66.2416 27.0923 56.983 27.0923C47.7244 27.0923 40.2188 34.5533 40.2188 43.7569C40.2188 52.9605 47.7244 60.4215 56.983 60.4215Z" fill="white"/>
<path opacity="0.52" d="M52.9071 60.4215C62.1657 60.4215 69.6713 52.9605 69.6713 43.7569C69.6713 34.5533 62.1657 27.0923 52.9071 27.0923C43.6484 27.0923 36.1428 34.5533 36.1428 43.7569C36.1428 52.9605 43.6484 60.4215 52.9071 60.4215Z" fill="white"/>
<path opacity="0.5" d="M48.8311 60.4215C58.0898 60.4215 65.5954 52.9605 65.5954 43.7569C65.5954 34.5533 58.0898 27.0923 48.8311 27.0923C39.5725 27.0923 32.0669 34.5533 32.0669 43.7569C32.0669 52.9605 39.5725 60.4215 48.8311 60.4215Z" fill="white"/>
<path opacity="0.49" d="M44.7553 60.4215C54.0139 60.4215 61.5195 52.9605 61.5195 43.7569C61.5195 34.5533 54.0139 27.0923 44.7553 27.0923C35.4966 27.0923 27.991 34.5533 27.991 43.7569C27.991 52.9605 35.4966 60.4215 44.7553 60.4215Z" fill="white"/>
<path opacity="0.44" d="M40.6793 60.4215C49.938 60.4215 57.4436 52.9605 57.4436 43.7569C57.4436 34.5533 49.938 27.0923 40.6793 27.0923C31.4207 27.0923 23.9151 34.5533 23.9151 43.7569C23.9151 52.9605 31.4207 60.4215 40.6793 60.4215Z" fill="white"/>
<path opacity="0.4" d="M36.6034 60.4215C45.862 60.4215 53.3676 52.9605 53.3676 43.7569C53.3676 34.5533 45.862 27.0923 36.6034 27.0923C27.3448 27.0923 19.8392 34.5533 19.8392 43.7569C19.8392 52.9605 27.3448 60.4215 36.6034 60.4215Z" fill="white"/>
<path opacity="0.29" d="M32.5275 60.4215C41.7861 60.4215 49.2917 52.9605 49.2917 43.7569C49.2917 34.5533 41.7861 27.0923 32.5275 27.0923C23.2688 27.0923 15.7632 34.5533 15.7632 43.7569C15.7632 52.9605 23.2688 60.4215 32.5275 60.4215Z" fill="white"/>
<path opacity="0.27" d="M28.4519 60.4215C37.7105 60.4215 45.2161 52.9605 45.2161 43.7569C45.2161 34.5533 37.7105 27.0923 28.4519 27.0923C19.1932 27.0923 11.6876 34.5533 11.6876 43.7569C11.6876 52.9605 19.1932 60.4215 28.4519 60.4215Z" fill="white"/>
<path opacity="0.25" d="M24.376 60.4215C33.6346 60.4215 41.1402 52.9605 41.1402 43.7569C41.1402 34.5533 33.6346 27.0923 24.376 27.0923C15.1173 27.0923 7.61172 34.5533 7.61172 43.7569C7.61172 52.9605 15.1173 60.4215 24.376 60.4215Z" fill="white"/>
<path opacity="0.25" d="M20.3001 60.4215C29.5587 60.4215 37.0643 52.9605 37.0643 43.7569C37.0643 34.5533 29.5587 27.0923 20.3001 27.0923C11.0414 27.0923 3.53583 34.5533 3.53583 43.7569C3.53583 52.9605 11.0414 60.4215 20.3001 60.4215Z" fill="white"/>
<path opacity="0.22" d="M16.2241 60.4215C25.4828 60.4215 32.9884 52.9605 32.9884 43.7569C32.9884 34.5533 25.4828 27.0923 16.2241 27.0923C6.9655 27.0923 -0.5401 34.5533 -0.5401 43.7569C-0.5401 52.9605 6.9655 60.4215 16.2241 60.4215Z" fill="white"/>
<path opacity="0.14" d="M12.1482 60.4215C21.4068 60.4215 28.9124 52.9605 28.9124 43.7569C28.9124 34.5533 21.4068 27.0923 12.1482 27.0923C2.88957 27.0923 -4.61603 34.5533 -4.61603 43.7569C-4.61603 52.9605 2.88957 60.4215 12.1482 60.4215Z" fill="white"/>
<path opacity="0.06" d="M8.07231 60.4215C17.3309 60.4215 24.8365 52.9605 24.8365 43.7569C24.8365 34.5533 17.3309 27.0923 8.07231 27.0923C-1.18632 27.0923 -8.69193 34.5533 -8.69193 43.7569C-8.69193 52.9605 -1.18632 60.4215 8.07231 60.4215Z" fill="white"/>
<path opacity="0.03" d="M3.99641 60.4215C13.255 60.4215 20.7606 52.9605 20.7606 43.7569C20.7606 34.5533 13.255 27.0923 3.99641 27.0923C-5.26222 27.0923 -12.7678 34.5533 -12.7678 43.7569C-12.7678 52.9605 -5.26222 60.4215 3.99641 60.4215Z" fill="white"/>
<path opacity="0.95" fill-rule="evenodd" clip-rule="evenodd" d="M102.279 43.7569C102.279 52.9605 94.773 60.4215 85.5144 60.4215C76.2557 60.4215 68.7501 52.9605 68.7501 43.7569C68.7501 34.5533 76.2557 27.0923 85.5144 27.0923C94.773 27.0923 102.279 34.5533 102.279 43.7569ZM88.4022 38.2729L86.5608 34.5634C86.1332 33.706 84.8993 33.706 84.4831 34.5634L82.6416 38.2729C82.2366 39.0931 81.449 39.6635 80.5376 39.794L76.4197 40.3905C75.4634 40.5284 75.0846 41.6916 75.7747 42.3626L78.7525 45.2482C79.4088 45.8857 79.7088 46.8065 79.555 47.7087L78.85 51.7835C78.685 52.7267 79.6826 53.45 80.5376 53.0026L84.2205 51.0789C85.0344 50.6539 86.0095 50.6539 86.8233 51.0789L90.5062 53.0026C91.3575 53.45 92.3551 52.7305 92.1938 51.7835L91.4888 47.7087C91.3313 46.8065 91.6313 45.8857 92.2914 45.2482L95.2692 42.3626C95.9592 41.6953 95.5804 40.5284 94.6241 40.3905L90.5062 39.794C89.5986 39.6635 88.811 39.0931 88.4022 38.2729Z" fill="white"/>
<g clip-path="url(#clip1_3952:90824)">
<path d="M34.6884 8.33955V9.63589H34.4337C32.701 9.63589 30.9546 10.9467 30.9546 13.8865V17.7032H29.8061V8.47642H30.9546V10.4471C31.766 9.08508 33.1131 8.28837 34.5225 8.33176L34.6884 8.33955Z" fill="white"/>
<path d="M39.4249 8.26953C37.0888 8.26953 35.2621 10.377 35.2621 13.0699V13.1055C35.2621 15.8406 37.1089 17.9058 39.559 17.9058C41.4133 17.9058 42.4571 16.9889 43.1671 16.1855L43.2876 16.0442L42.4709 15.2831L42.3504 15.4166C41.5475 16.3257 40.6705 16.7485 39.5865 16.7485C37.9404 16.7485 36.6821 15.4722 36.4813 13.6184H43.4292L43.4492 13.456C43.463 13.308 43.463 13.2512 43.463 13.0899C43.4609 10.2502 41.801 8.26953 39.4249 8.26953ZM36.4792 12.4912C36.6937 10.6942 37.8918 9.41119 39.3974 9.41119C41.258 9.41119 42.0747 11.0258 42.2289 12.4912H36.4792Z" fill="white"/>
<path d="M18.1345 12.1384V17.7031H16.9839V12.2407C16.9839 10.4348 16.1365 9.3966 14.6553 9.3966C13.4571 9.3966 12.1682 10.3179 12.1682 12.3498V17.7031H11.0123V12.1896C11.0123 10.5716 10.241 9.53458 8.9869 9.41107C8.92562 9.3966 8.86328 9.3966 8.80095 9.3966H8.72487C7.2922 9.43221 6.47232 10.4637 6.47232 12.2407V17.7031H5.32175V12.1384C5.32175 9.77382 6.65828 8.25049 8.73227 8.25049C8.76608 8.25049 8.80095 8.25049 8.83581 8.25828C9.58702 8.27274 10.2421 8.48973 10.7989 8.91145C10.8823 8.96931 10.9574 9.03385 11.0334 9.10729C11.3303 9.39104 11.5437 9.7026 11.6948 9.97856C11.7086 9.9641 11.716 9.94184 11.7297 9.92738C12.4513 8.81576 13.4582 8.25049 14.725 8.25049C16.799 8.25049 18.1345 9.77382 18.1345 12.1384Z" fill="white"/>
<path d="M23.8799 8.08252C21.2713 8.08252 19.1572 10.3091 19.1572 13.0564C19.1572 15.8027 21.2713 18.0303 23.8799 18.0303C26.4875 18.0303 28.6027 15.8027 28.6027 13.0564C28.6027 10.3091 26.4875 8.08252 23.8799 8.08252ZM26.627 12.6403L25.7881 13.5015C25.6021 13.6918 25.5176 13.9666 25.562 14.2359L25.7595 15.4533C25.806 15.7348 25.5239 15.9506 25.2841 15.8171L24.2466 15.243C24.0173 15.115 23.7426 15.115 23.5133 15.243L22.4758 15.8171C22.2349 15.9506 21.9539 15.7348 21.9993 15.4533L22.1979 14.2359C22.2412 13.9666 22.1567 13.6918 21.9708 13.5015L21.1319 12.6403C20.9375 12.44 21.0442 12.0917 21.3136 12.0505L22.4737 11.8736C22.7304 11.8335 22.9523 11.6644 23.0664 11.4196L23.5852 10.3124C23.7056 10.0554 24.0532 10.0554 24.1737 10.3124L24.6924 11.4196C24.8076 11.6644 25.0295 11.8335 25.2862 11.8736L26.4452 12.0505C26.7147 12.0917 26.8224 12.44 26.627 12.6403Z" fill="white"/>
</g>
<path d="M64.5302 16C64.4635 16 64.4068 15.9767 64.3602 15.93C64.3135 15.8833 64.2902 15.8267 64.2902 15.76V9.25C64.2902 9.17667 64.3102 9.11667 64.3502 9.07C64.3968 9.02333 64.4568 9 64.5302 9H67.2102C68.0102 9 68.6402 9.19 69.1002 9.57C69.5602 9.94333 69.7902 10.4933 69.7902 11.22C69.7902 11.9467 69.5602 12.4967 69.1002 12.87C68.6468 13.2367 68.0168 13.42 67.2102 13.42H65.7202V15.76C65.7202 15.8267 65.6968 15.8833 65.6502 15.93C65.6102 15.9767 65.5535 16 65.4802 16H64.5302ZM67.1602 12.31C67.5468 12.31 67.8435 12.22 68.0502 12.04C68.2568 11.8533 68.3602 11.58 68.3602 11.22C68.3602 10.8733 68.2602 10.6033 68.0602 10.41C67.8602 10.21 67.5602 10.11 67.1602 10.11H65.7002V12.31H67.1602ZM71.202 16C71.1353 16 71.0786 15.9767 71.032 15.93C70.9853 15.8833 70.962 15.8267 70.962 15.76V11.05C70.962 10.9833 70.9853 10.9267 71.032 10.88C71.0786 10.8267 71.1353 10.8 71.202 10.8H72.012C72.0853 10.8 72.1453 10.8233 72.192 10.87C72.2386 10.9167 72.262 10.9767 72.262 11.05V11.46C72.422 11.2467 72.622 11.0833 72.862 10.97C73.1086 10.8567 73.3886 10.8 73.702 10.8H74.112C74.1853 10.8 74.242 10.8233 74.282 10.87C74.3286 10.91 74.352 10.9667 74.352 11.04V11.76C74.352 11.8267 74.3286 11.8833 74.282 11.93C74.242 11.9767 74.1853 12 74.112 12H73.332C73.0186 12 72.772 12.09 72.592 12.27C72.412 12.45 72.322 12.6967 72.322 13.01V15.76C72.322 15.8267 72.2986 15.8833 72.252 15.93C72.2053 15.9767 72.1453 16 72.072 16H71.202ZM77.5035 16.1C76.7635 16.1 76.1735 15.8867 75.7335 15.46C75.3002 15.0267 75.0702 14.42 75.0435 13.64L75.0335 13.39L75.0435 13.14C75.0768 12.38 75.3102 11.7833 75.7435 11.35C76.1835 10.9167 76.7702 10.7 77.5035 10.7C78.2902 10.7 78.8968 10.94 79.3235 11.42C79.7568 11.9 79.9735 12.54 79.9735 13.34V13.55C79.9735 13.6167 79.9502 13.6733 79.9035 13.72C79.8568 13.7667 79.7968 13.79 79.7235 13.79H76.4035V13.87C76.4168 14.2367 76.5168 14.5467 76.7035 14.8C76.8968 15.0467 77.1602 15.17 77.4935 15.17C77.8868 15.17 78.2035 15.0167 78.4435 14.71C78.5035 14.6367 78.5502 14.59 78.5835 14.57C78.6235 14.55 78.6802 14.54 78.7535 14.54H79.6135C79.6735 14.54 79.7235 14.56 79.7635 14.6C79.8102 14.6333 79.8335 14.6767 79.8335 14.73C79.8335 14.89 79.7368 15.08 79.5435 15.3C79.3568 15.5133 79.0868 15.7 78.7335 15.86C78.3802 16.02 77.9702 16.1 77.5035 16.1ZM78.6135 12.95V12.92C78.6135 12.5267 78.5135 12.21 78.3135 11.97C78.1202 11.73 77.8502 11.61 77.5035 11.61C77.1568 11.61 76.8868 11.73 76.6935 11.97C76.5002 12.21 76.4035 12.5267 76.4035 12.92V12.95H78.6135ZM81.485 17.9C81.4183 17.9 81.3617 17.8767 81.315 17.83C81.2683 17.79 81.245 17.7333 81.245 17.66V11.04C81.245 10.9667 81.2683 10.91 81.315 10.87C81.3617 10.8233 81.4183 10.8 81.485 10.8H82.275C82.3483 10.8 82.405 10.8233 82.445 10.87C82.4917 10.91 82.515 10.9667 82.515 11.04V11.44C82.8883 10.9467 83.4217 10.7 84.115 10.7C84.7883 10.7 85.305 10.9133 85.665 11.34C86.025 11.76 86.2183 12.33 86.245 13.05C86.2517 13.13 86.255 13.2467 86.255 13.4C86.255 13.56 86.2517 13.68 86.245 13.76C86.2183 14.46 86.025 15.0267 85.665 15.46C85.305 15.8867 84.7883 16.1 84.115 16.1C83.4417 16.1 82.9283 15.8633 82.575 15.39V17.66C82.575 17.7333 82.5517 17.79 82.505 17.83C82.465 17.8767 82.4083 17.9 82.335 17.9H81.485ZM83.745 15.03C84.465 15.03 84.8483 14.5867 84.895 13.7C84.9017 13.6333 84.905 13.5333 84.905 13.4C84.905 13.2667 84.9017 13.1667 84.895 13.1C84.8483 12.2133 84.465 11.77 83.745 11.77C83.3583 11.77 83.0717 11.8933 82.885 12.14C82.6983 12.3867 82.595 12.69 82.575 13.05L82.565 13.43L82.575 13.82C82.5883 14.1533 82.6917 14.44 82.885 14.68C83.085 14.9133 83.3717 15.03 83.745 15.03ZM89.0876 16.1C88.7476 16.1 88.4342 16.0333 88.1476 15.9C87.8676 15.76 87.6442 15.5733 87.4776 15.34C87.3176 15.1067 87.2376 14.85 87.2376 14.57C87.2376 14.1167 87.4209 13.75 87.7876 13.47C88.1542 13.19 88.6576 13 89.2976 12.9L90.6676 12.7V12.49C90.6676 12.1967 90.5942 11.9767 90.4476 11.83C90.3009 11.6833 90.0642 11.61 89.7376 11.61C89.5176 11.61 89.3376 11.6533 89.1976 11.74C89.0642 11.82 88.9576 11.9 88.8776 11.98C88.7976 12.0667 88.7442 12.1233 88.7176 12.15C88.6909 12.23 88.6409 12.27 88.5676 12.27H87.7976C87.7376 12.27 87.6842 12.25 87.6376 12.21C87.5976 12.17 87.5776 12.1167 87.5776 12.05C87.5842 11.8833 87.6642 11.6933 87.8176 11.48C87.9776 11.2667 88.2209 11.0833 88.5476 10.93C88.8742 10.7767 89.2742 10.7 89.7476 10.7C90.5342 10.7 91.1076 10.8767 91.4676 11.23C91.8276 11.5833 92.0076 12.0467 92.0076 12.62V15.76C92.0076 15.8267 91.9842 15.8833 91.9376 15.93C91.8976 15.9767 91.8409 16 91.7676 16H90.9576C90.8909 16 90.8342 15.9767 90.7876 15.93C90.7409 15.8833 90.7176 15.8267 90.7176 15.76V15.37C90.5709 15.5833 90.3609 15.76 90.0876 15.9C89.8209 16.0333 89.4876 16.1 89.0876 16.1ZM89.4276 15.15C89.7942 15.15 90.0942 15.03 90.3276 14.79C90.5609 14.55 90.6776 14.2 90.6776 13.74V13.53L89.6776 13.69C89.2909 13.75 88.9976 13.8467 88.7976 13.98C88.6042 14.1133 88.5076 14.2767 88.5076 14.47C88.5076 14.6833 88.5976 14.85 88.7776 14.97C88.9576 15.09 89.1742 15.15 89.4276 15.15ZM93.6905 9.94C93.6238 9.94 93.5671 9.91667 93.5205 9.87C93.4738 9.82333 93.4505 9.76667 93.4505 9.7V8.98C93.4505 8.91333 93.4738 8.85667 93.5205 8.81C93.5671 8.76333 93.6238 8.74 93.6905 8.74H94.6005C94.6671 8.74 94.7238 8.76333 94.7705 8.81C94.8238 8.85667 94.8505 8.91333 94.8505 8.98V9.7C94.8505 9.76667 94.8271 9.82333 94.7805 9.87C94.7338 9.91667 94.6738 9.94 94.6005 9.94H93.6905ZM93.7305 16C93.6638 16 93.6071 15.9767 93.5605 15.93C93.5138 15.8833 93.4905 15.8267 93.4905 15.76V11.04C93.4905 10.9733 93.5138 10.9167 93.5605 10.87C93.6071 10.8233 93.6638 10.8 93.7305 10.8H94.5605C94.6338 10.8 94.6905 10.8233 94.7305 10.87C94.7771 10.91 94.8005 10.9667 94.8005 11.04V15.76C94.8005 15.8267 94.7771 15.8833 94.7305 15.93C94.6905 15.9767 94.6338 16 94.5605 16H93.7305ZM98.2572 16.1C97.5839 16.1 97.0672 15.8833 96.7072 15.45C96.3472 15.0167 96.1539 14.44 96.1272 13.72L96.1172 13.39L96.1272 13.07C96.1472 12.37 96.3372 11.8 96.6972 11.36C97.0639 10.92 97.5839 10.7 98.2572 10.7C98.9039 10.7 99.4172 10.92 99.7972 11.36V9.14C99.7972 9.06667 99.8205 9.01 99.8672 8.97C99.9139 8.92333 99.9705 8.9 100.037 8.9H100.887C100.961 8.9 101.017 8.92333 101.057 8.97C101.104 9.01 101.127 9.06667 101.127 9.14V15.76C101.127 15.8267 101.104 15.8833 101.057 15.93C101.017 15.9767 100.961 16 100.887 16H100.097C100.031 16 99.9739 15.9767 99.9272 15.93C99.8805 15.8833 99.8572 15.8267 99.8572 15.76V15.39C99.4772 15.8633 98.9439 16.1 98.2572 16.1ZM98.6272 15.03C99.0139 15.03 99.3005 14.9067 99.4872 14.66C99.6739 14.4133 99.7772 14.11 99.7972 13.75C99.8039 13.67 99.8072 13.54 99.8072 13.36C99.8072 13.1867 99.8039 13.06 99.7972 12.98C99.7839 12.6467 99.6772 12.3633 99.4772 12.13C99.2839 11.89 99.0005 11.77 98.6272 11.77C97.9072 11.77 97.5239 12.2133 97.4772 13.1L97.4672 13.4L97.4772 13.7C97.5239 14.5867 97.9072 15.03 98.6272 15.03Z" fill="#F7F7FA"/>
</g>
<defs>
<clipPath id="clip0_3952:90824">
<path d="M0 7.46C0 3.33996 3.33996 0 7.46 0H99.54C103.66 0 107 3.33996 107 7.46V63.54C107 67.66 103.66 71 99.54 71H7.46C3.33995 71 0 67.66 0 63.54V7.46Z" fill="white"/>
</clipPath>
<clipPath id="clip1_3952:90824">
<rect width="38.1391" height="9.94783" fill="white" transform="translate(5.32175 8.08252)"/>
</clipPath>
</defs>
</svg>
