<svg width="107" height="71" viewBox="0 0 107 71" fill="none" xmlns="http://www.w3.org/2000/svg">
<g clip-path="url(#clip0_3860_82692)">
<path d="M0 7.46C0 3.33996 3.33996 0 7.46 0H99.54C103.66 0 107 3.33996 107 7.46V63.54C107 67.66 103.66 71 99.54 71H7.46C3.33995 71 0 67.66 0 63.54V7.46Z" fill="#5353EA"/>
<path d="M80.0413 16.1C79.4213 16.1 78.8947 15.9933 78.4613 15.78C78.0347 15.56 77.708 15.25 77.4813 14.85C77.2547 14.4433 77.128 13.9567 77.1013 13.39C77.0947 13.1167 77.0913 12.8233 77.0913 12.51C77.0913 12.1967 77.0947 11.8967 77.1013 11.61C77.128 11.05 77.2547 10.5667 77.4813 10.16C77.7147 9.75333 78.0447 9.44333 78.4713 9.23C78.9047 9.01 79.428 8.9 80.0413 8.9C80.4947 8.9 80.9013 8.96 81.2613 9.08C81.6213 9.2 81.928 9.36667 82.1813 9.58C82.4347 9.78667 82.6313 10.03 82.7713 10.31C82.9113 10.59 82.9847 10.8933 82.9913 11.22C82.998 11.28 82.978 11.33 82.9313 11.37C82.8913 11.41 82.8413 11.43 82.7813 11.43H81.8313C81.758 11.43 81.698 11.4133 81.6513 11.38C81.6047 11.34 81.5713 11.2767 81.5513 11.19C81.4447 10.75 81.2613 10.45 81.0013 10.29C80.7413 10.13 80.418 10.05 80.0313 10.05C79.5847 10.05 79.228 10.1767 78.9613 10.43C78.6947 10.6767 78.5513 11.0867 78.5313 11.66C78.5113 12.2067 78.5113 12.7667 78.5313 13.34C78.5513 13.9133 78.6947 14.3267 78.9613 14.58C79.228 14.8267 79.5847 14.95 80.0313 14.95C80.418 14.95 80.7413 14.87 81.0013 14.71C81.2613 14.5433 81.4447 14.2433 81.5513 13.81C81.5713 13.7167 81.6047 13.6533 81.6513 13.62C81.698 13.5867 81.758 13.57 81.8313 13.57H82.7813C82.8413 13.57 82.8913 13.59 82.9313 13.63C82.978 13.67 82.998 13.72 82.9913 13.78C82.9847 14.1067 82.9113 14.41 82.7713 14.69C82.6313 14.97 82.4347 15.2167 82.1813 15.43C81.928 15.6367 81.6213 15.8 81.2613 15.92C80.9013 16.04 80.4947 16.1 80.0413 16.1ZM84.6173 16C84.5506 16 84.4939 15.9767 84.4473 15.93C84.4006 15.8833 84.3773 15.8267 84.3773 15.76V9.25C84.3773 9.17667 84.4006 9.11667 84.4473 9.07C84.4939 9.02333 84.5506 9 84.6173 9H87.2973C87.8173 9 88.2706 9.08333 88.6573 9.25C89.0439 9.41 89.3439 9.65667 89.5573 9.99C89.7706 10.3167 89.8773 10.7267 89.8773 11.22C89.8773 11.72 89.7706 12.1333 89.5573 12.46C89.3439 12.78 89.0439 13.02 88.6573 13.18C88.2706 13.34 87.8173 13.42 87.2973 13.42H85.8073V15.76C85.8073 15.8267 85.7839 15.8833 85.7373 15.93C85.6973 15.9767 85.6406 16 85.5673 16H84.6173ZM85.7873 12.31H87.2473C87.6339 12.31 87.9306 12.22 88.1373 12.04C88.3439 11.8533 88.4473 11.58 88.4473 11.22C88.4473 10.8867 88.3506 10.62 88.1573 10.42C87.9639 10.2133 87.6606 10.11 87.2473 10.11H85.7873V12.31ZM92.4516 16.1C92.105 16.1 91.7916 16.0333 91.5116 15.9C91.2316 15.76 91.0083 15.5767 90.8416 15.35C90.6816 15.1167 90.6016 14.8567 90.6016 14.57C90.6016 14.1033 90.7883 13.7333 91.1616 13.46C91.5416 13.18 92.0416 12.9933 92.6616 12.9L94.0316 12.7V12.49C94.0316 12.21 93.9616 11.9933 93.8216 11.84C93.6816 11.6867 93.4416 11.61 93.1016 11.61C92.8616 11.61 92.665 11.66 92.5116 11.76C92.365 11.8533 92.255 11.98 92.1816 12.14C92.1283 12.2267 92.0516 12.27 91.9516 12.27H91.1616C91.0883 12.27 91.0316 12.25 90.9916 12.21C90.9583 12.17 90.9416 12.1167 90.9416 12.05C90.9483 11.9433 90.9916 11.8133 91.0716 11.66C91.1516 11.5067 91.2783 11.36 91.4516 11.22C91.625 11.0733 91.8483 10.95 92.1216 10.85C92.395 10.75 92.725 10.7 93.1116 10.7C93.5316 10.7 93.885 10.7533 94.1716 10.86C94.465 10.96 94.6983 11.0967 94.8716 11.27C95.045 11.4433 95.1716 11.6467 95.2516 11.88C95.3316 12.1133 95.3716 12.36 95.3716 12.62V15.76C95.3716 15.8267 95.3483 15.8833 95.3016 15.93C95.255 15.9767 95.1983 16 95.1316 16H94.3216C94.2483 16 94.1883 15.9767 94.1416 15.93C94.1016 15.8833 94.0816 15.8267 94.0816 15.76V15.37C93.995 15.4967 93.8783 15.6167 93.7316 15.73C93.585 15.8367 93.405 15.9267 93.1916 16C92.985 16.0667 92.7383 16.1 92.4516 16.1ZM92.7916 15.15C93.025 15.15 93.235 15.1 93.4216 15C93.615 14.9 93.765 14.7467 93.8716 14.54C93.985 14.3267 94.0416 14.06 94.0416 13.74V13.53L93.0416 13.69C92.6483 13.75 92.355 13.8467 92.1616 13.98C91.9683 14.1133 91.8716 14.2767 91.8716 14.47C91.8716 14.6167 91.915 14.7433 92.0016 14.85C92.095 14.95 92.2116 15.0267 92.3516 15.08C92.4916 15.1267 92.6383 15.15 92.7916 15.15ZM97.6578 17.9C97.6045 17.9 97.5578 17.88 97.5178 17.84C97.4778 17.8 97.4578 17.7533 97.4578 17.7C97.4578 17.6733 97.4578 17.6467 97.4578 17.62C97.4645 17.6 97.4778 17.5733 97.4978 17.54L98.2778 15.69L96.3578 11.16C96.3311 11.0933 96.3178 11.0467 96.3178 11.02C96.3245 10.96 96.3478 10.91 96.3878 10.87C96.4278 10.8233 96.4778 10.8 96.5378 10.8H97.3478C97.4278 10.8 97.4878 10.82 97.5278 10.86C97.5678 10.9 97.5978 10.9433 97.6178 10.99L98.9478 14.26L100.318 10.99C100.338 10.9367 100.368 10.8933 100.408 10.86C100.448 10.82 100.508 10.8 100.588 10.8H101.388C101.441 10.8 101.488 10.82 101.528 10.86C101.574 10.9 101.598 10.9467 101.598 11C101.598 11.04 101.584 11.0933 101.558 11.16L98.7278 17.71C98.7011 17.7633 98.6678 17.8067 98.6278 17.84C98.5878 17.88 98.5278 17.9 98.4478 17.9H97.6578Z" fill="#F7F7FA"/>
<path opacity="0.83" fill-rule="evenodd" clip-rule="evenodd" d="M98.2027 43.7569C98.2027 52.9605 90.6971 60.4215 81.4384 60.4215C72.1798 60.4215 64.6742 52.9605 64.6742 43.7569C64.6742 34.5533 72.1798 27.0923 81.4384 27.0923C90.6971 27.0923 98.2027 34.5533 98.2027 43.7569ZM86.5608 34.5635L88.4023 38.273C88.8111 39.0932 89.5986 39.6636 90.5062 39.794L94.6242 40.3905C95.5805 40.5285 95.9593 41.6954 95.2692 42.3627L92.2914 45.2482C91.6313 45.8858 91.3313 46.8066 91.4888 47.7088L92.1939 51.7836C92.3552 52.7305 91.3576 53.4501 90.5062 53.0027L86.8234 51.079C86.0095 50.654 85.0344 50.654 84.2206 51.079L80.5377 53.0027C79.6826 53.4501 78.685 52.7268 78.85 51.7836L79.5551 47.7088C79.7089 46.8066 79.4088 45.8858 78.7525 45.2482L75.7747 42.3627C75.0846 41.6916 75.4634 40.5285 76.4198 40.3905L80.5377 39.794C81.449 39.6636 82.2366 39.0932 82.6417 38.273L84.4831 34.5635C84.8994 33.706 86.1333 33.706 86.5608 34.5635Z" fill="white"/>
<path opacity="0.79" fill-rule="evenodd" clip-rule="evenodd" d="M91.2297 53.1243C88.2127 57.529 83.1275 60.4215 77.3626 60.4215C68.104 60.4215 60.5984 52.9605 60.5984 43.7569C60.5984 34.5533 68.104 27.0923 77.3626 27.0923C85.4165 27.0923 92.1438 32.7379 93.7583 40.2651L90.5062 39.794C89.5986 39.6636 88.8111 39.0932 88.4023 38.273L86.5608 34.5635C86.1333 33.706 84.8994 33.706 84.4831 34.5635L82.6417 38.273C82.2366 39.0932 81.449 39.6636 80.5377 39.794L76.4198 40.3905C75.4634 40.5285 75.0846 41.6916 75.7747 42.3627L78.7525 45.2482C79.4088 45.8858 79.7089 46.8066 79.5551 47.7088L78.85 51.7836C78.685 52.7268 79.6826 53.4501 80.5377 53.0027L84.2206 51.079C85.0344 50.654 86.0095 50.654 86.8234 51.079L90.5062 53.0027C90.7455 53.1284 90.9963 53.162 91.2297 53.1243ZM92.1611 51.594C93.4157 49.2579 94.1269 46.59 94.1269 43.7569C94.1269 43.6617 94.1261 43.5668 94.1245 43.472L92.2914 45.2482C91.6313 45.8858 91.3313 46.8066 91.4888 47.7088L92.1611 51.594Z" fill="white"/>
<path opacity="0.75" fill-rule="evenodd" clip-rule="evenodd" d="M88.0243 51.7063C85.1844 56.8978 79.6495 60.4215 73.2867 60.4215C64.0281 60.4215 56.5225 52.9605 56.5225 43.7569C56.5225 34.5533 64.0281 27.0923 73.2867 27.0923C81.0407 27.0923 87.5651 32.3253 89.4809 39.4324C89.0235 39.1612 88.6457 38.7614 88.4023 38.273L86.5608 34.5635C86.1333 33.706 84.8994 33.706 84.4831 34.5635L82.6417 38.273C82.2366 39.0932 81.449 39.6636 80.5377 39.794L76.4198 40.3905C75.4634 40.5285 75.0846 41.6916 75.7747 42.3627L78.7525 45.2482C79.4088 45.8858 79.7089 46.8066 79.5551 47.7088L78.85 51.7836C78.685 52.7268 79.6826 53.4501 80.5377 53.0027L84.2206 51.079C85.0344 50.654 86.0095 50.654 86.8234 51.079L88.0243 51.7063Z" fill="white"/>
<path opacity="0.69" fill-rule="evenodd" clip-rule="evenodd" d="M84.292 51.043C81.5723 56.5953 75.841 60.4215 69.2108 60.4215C59.9521 60.4215 52.4465 52.9605 52.4465 43.7569C52.4465 34.5533 59.9521 27.0923 69.2108 27.0923C75.5413 27.0923 81.0522 30.5803 83.9048 35.7284L82.6417 38.273C82.2366 39.0932 81.449 39.6636 80.5377 39.794L76.4198 40.3905C75.4634 40.5285 75.0846 41.6916 75.7747 42.3627L78.7525 45.2482C79.4088 45.8858 79.7089 46.8066 79.5551 47.7088L78.85 51.7836C78.685 52.7268 79.6826 53.4501 80.5377 53.0027L84.2206 51.079C84.2443 51.0666 84.2681 51.0546 84.292 51.043Z" fill="white"/>
<path opacity="0.65" fill-rule="evenodd" clip-rule="evenodd" d="M79.202 52.8252C76.213 57.3976 71.0292 60.4215 65.1348 60.4215C55.8762 60.4215 48.3706 52.9605 48.3706 43.7569C48.3706 34.5533 55.8762 27.0923 65.1348 27.0923C72.9292 27.0923 79.4811 32.3799 81.3586 39.5435C81.1029 39.6671 80.8265 39.7527 80.5377 39.794L76.4198 40.3905C75.4634 40.5285 75.0846 41.6916 75.7747 42.3627L78.7525 45.2482C79.4088 45.8858 79.7089 46.8066 79.5551 47.7088L78.85 51.7836C78.7769 52.2016 78.9321 52.5764 79.202 52.8252Z" fill="white"/>
<path opacity="0.64" fill-rule="evenodd" clip-rule="evenodd" d="M77.8131 44.338C77.5051 53.2725 70.1219 60.4215 61.0589 60.4215C51.8003 60.4215 44.2947 52.9605 44.2947 43.7569C44.2947 34.5533 51.8003 27.0923 61.0589 27.0923C69.1043 27.0923 75.826 32.726 77.4494 40.2414L76.4198 40.3905C75.4634 40.5285 75.0846 41.6916 75.7747 42.3627L77.8131 44.338Z" fill="white"/>
<path opacity="0.52" d="M56.983 60.4215C66.2416 60.4215 73.7472 52.9605 73.7472 43.7569C73.7472 34.5533 66.2416 27.0923 56.983 27.0923C47.7244 27.0923 40.2188 34.5533 40.2188 43.7569C40.2188 52.9605 47.7244 60.4215 56.983 60.4215Z" fill="white"/>
<path opacity="0.52" d="M52.9071 60.4215C62.1657 60.4215 69.6713 52.9605 69.6713 43.7569C69.6713 34.5533 62.1657 27.0923 52.9071 27.0923C43.6484 27.0923 36.1428 34.5533 36.1428 43.7569C36.1428 52.9605 43.6484 60.4215 52.9071 60.4215Z" fill="white"/>
<path opacity="0.5" d="M48.8311 60.4215C58.0898 60.4215 65.5954 52.9605 65.5954 43.7569C65.5954 34.5533 58.0898 27.0923 48.8311 27.0923C39.5725 27.0923 32.0669 34.5533 32.0669 43.7569C32.0669 52.9605 39.5725 60.4215 48.8311 60.4215Z" fill="white"/>
<path opacity="0.49" d="M44.7553 60.4215C54.0139 60.4215 61.5195 52.9605 61.5195 43.7569C61.5195 34.5533 54.0139 27.0923 44.7553 27.0923C35.4966 27.0923 27.991 34.5533 27.991 43.7569C27.991 52.9605 35.4966 60.4215 44.7553 60.4215Z" fill="white"/>
<path opacity="0.44" d="M40.6793 60.4215C49.938 60.4215 57.4436 52.9605 57.4436 43.7569C57.4436 34.5533 49.938 27.0923 40.6793 27.0923C31.4207 27.0923 23.9151 34.5533 23.9151 43.7569C23.9151 52.9605 31.4207 60.4215 40.6793 60.4215Z" fill="white"/>
<path opacity="0.4" d="M36.6034 60.4215C45.862 60.4215 53.3676 52.9605 53.3676 43.7569C53.3676 34.5533 45.862 27.0923 36.6034 27.0923C27.3448 27.0923 19.8392 34.5533 19.8392 43.7569C19.8392 52.9605 27.3448 60.4215 36.6034 60.4215Z" fill="white"/>
<path opacity="0.29" d="M32.5275 60.4215C41.7861 60.4215 49.2917 52.9605 49.2917 43.7569C49.2917 34.5533 41.7861 27.0923 32.5275 27.0923C23.2688 27.0923 15.7632 34.5533 15.7632 43.7569C15.7632 52.9605 23.2688 60.4215 32.5275 60.4215Z" fill="white"/>
<path opacity="0.27" d="M28.4519 60.4215C37.7105 60.4215 45.2161 52.9605 45.2161 43.7569C45.2161 34.5533 37.7105 27.0923 28.4519 27.0923C19.1932 27.0923 11.6876 34.5533 11.6876 43.7569C11.6876 52.9605 19.1932 60.4215 28.4519 60.4215Z" fill="white"/>
<path opacity="0.25" d="M24.376 60.4215C33.6346 60.4215 41.1402 52.9605 41.1402 43.7569C41.1402 34.5533 33.6346 27.0923 24.376 27.0923C15.1174 27.0923 7.61176 34.5533 7.61176 43.7569C7.61176 52.9605 15.1174 60.4215 24.376 60.4215Z" fill="white"/>
<path opacity="0.25" d="M20.3001 60.4215C29.5587 60.4215 37.0643 52.9605 37.0643 43.7569C37.0643 34.5533 29.5587 27.0923 20.3001 27.0923C11.0414 27.0923 3.53583 34.5533 3.53583 43.7569C3.53583 52.9605 11.0414 60.4215 20.3001 60.4215Z" fill="white"/>
<path opacity="0.22" d="M16.2241 60.4215C25.4828 60.4215 32.9884 52.9605 32.9884 43.7569C32.9884 34.5533 25.4828 27.0923 16.2241 27.0923C6.9655 27.0923 -0.5401 34.5533 -0.5401 43.7569C-0.5401 52.9605 6.9655 60.4215 16.2241 60.4215Z" fill="white"/>
<path opacity="0.14" d="M12.1482 60.4215C21.4068 60.4215 28.9124 52.9605 28.9124 43.7569C28.9124 34.5533 21.4068 27.0923 12.1482 27.0923C2.88957 27.0923 -4.61603 34.5533 -4.61603 43.7569C-4.61603 52.9605 2.88957 60.4215 12.1482 60.4215Z" fill="white"/>
<path opacity="0.06" d="M8.07234 60.4215C17.331 60.4215 24.8366 52.9605 24.8366 43.7569C24.8366 34.5533 17.331 27.0923 8.07234 27.0923C-1.18629 27.0923 -8.69189 34.5533 -8.69189 43.7569C-8.69189 52.9605 -1.18629 60.4215 8.07234 60.4215Z" fill="white"/>
<path opacity="0.03" d="M3.99641 60.4215C13.255 60.4215 20.7606 52.9605 20.7606 43.7569C20.7606 34.5533 13.255 27.0923 3.99641 27.0923C-5.26222 27.0923 -12.7678 34.5533 -12.7678 43.7569C-12.7678 52.9605 -5.26222 60.4215 3.99641 60.4215Z" fill="white"/>
<path opacity="0.95" fill-rule="evenodd" clip-rule="evenodd" d="M102.279 43.7569C102.279 52.9605 94.773 60.4215 85.5144 60.4215C76.2557 60.4215 68.7501 52.9605 68.7501 43.7569C68.7501 34.5533 76.2557 27.0923 85.5144 27.0923C94.773 27.0923 102.279 34.5533 102.279 43.7569ZM88.4022 38.2729L86.5608 34.5634C86.1332 33.706 84.8993 33.706 84.4831 34.5634L82.6416 38.2729C82.2366 39.0931 81.449 39.6635 80.5376 39.794L76.4197 40.3905C75.4634 40.5284 75.0846 41.6916 75.7747 42.3626L78.7525 45.2482C79.4088 45.8857 79.7088 46.8065 79.555 47.7087L78.85 51.7835C78.685 52.7267 79.6826 53.45 80.5376 53.0026L84.2205 51.0789C85.0344 50.6539 86.0095 50.6539 86.8233 51.0789L90.5062 53.0026C91.3575 53.45 92.3551 52.7305 92.1938 51.7835L91.4888 47.7087C91.3313 46.8065 91.6313 45.8857 92.2914 45.2482L95.2692 42.3626C95.9592 41.6953 95.5804 40.5284 94.6241 40.3905L90.5062 39.794C89.5986 39.6635 88.811 39.0931 88.4022 38.2729Z" fill="white"/>
<g clip-path="url(#clip1_3860_82692)">
<path d="M34.6884 8.33955V9.63589H34.4337C32.701 9.63589 30.9546 10.9467 30.9546 13.8865V17.7032H29.8061V8.47642H30.9546V10.4471C31.766 9.08508 33.1131 8.28837 34.5225 8.33176L34.6884 8.33955Z" fill="white"/>
<path d="M39.4249 8.26953C37.0888 8.26953 35.2621 10.377 35.2621 13.0699V13.1055C35.2621 15.8406 37.1089 17.9058 39.559 17.9058C41.4133 17.9058 42.4571 16.9889 43.1671 16.1855L43.2876 16.0442L42.4709 15.2831L42.3504 15.4166C41.5475 16.3257 40.6705 16.7485 39.5865 16.7485C37.9404 16.7485 36.6821 15.4722 36.4813 13.6184H43.4292L43.4492 13.456C43.463 13.308 43.463 13.2512 43.463 13.0899C43.4609 10.2502 41.801 8.26953 39.4249 8.26953ZM36.4792 12.4912C36.6937 10.6942 37.8918 9.41119 39.3974 9.41119C41.258 9.41119 42.0747 11.0258 42.2289 12.4912H36.4792Z" fill="white"/>
<path d="M18.1344 12.1384V17.7031H16.9838V12.2407C16.9838 10.4348 16.1365 9.3966 14.6552 9.3966C13.4571 9.3966 12.1681 10.3179 12.1681 12.3498V17.7031H11.0123V12.1896C11.0123 10.5716 10.241 9.53458 8.98687 9.41107C8.92559 9.3966 8.86325 9.3966 8.80092 9.3966H8.72484C7.29217 9.43221 6.47229 10.4637 6.47229 12.2407V17.7031H5.32172V12.1384C5.32172 9.77382 6.65824 8.25049 8.73224 8.25049C8.76605 8.25049 8.80092 8.25049 8.83578 8.25828C9.58698 8.27274 10.242 8.48973 10.7988 8.91145C10.8823 8.96931 10.9573 9.03385 11.0334 9.10729C11.3303 9.39104 11.5437 9.7026 11.6948 9.97856C11.7085 9.9641 11.7159 9.94184 11.7297 9.92738C12.4513 8.81576 13.4582 8.25049 14.725 8.25049C16.799 8.25049 18.1344 9.77382 18.1344 12.1384Z" fill="white"/>
<path d="M23.8799 8.08252C21.2713 8.08252 19.1572 10.3091 19.1572 13.0564C19.1572 15.8027 21.2713 18.0303 23.8799 18.0303C26.4875 18.0303 28.6027 15.8027 28.6027 13.0564C28.6027 10.3091 26.4875 8.08252 23.8799 8.08252ZM26.6269 12.6403L25.788 13.5015C25.6021 13.6918 25.5176 13.9666 25.5619 14.2359L25.7595 15.4533C25.806 15.7348 25.5239 15.9506 25.2841 15.8171L24.2465 15.243C24.0173 15.115 23.7426 15.115 23.5133 15.243L22.4758 15.8171C22.2349 15.9506 21.9538 15.7348 21.9993 15.4533L22.1979 14.2359C22.2412 13.9666 22.1567 13.6918 21.9707 13.5015L21.1318 12.6403C20.9374 12.44 21.0442 12.0917 21.3136 12.0505L22.4737 11.8736C22.7304 11.8335 22.9523 11.6644 23.0664 11.4196L23.5851 10.3124C23.7056 10.0554 24.0532 10.0554 24.1736 10.3124L24.6924 11.4196C24.8076 11.6644 25.0294 11.8335 25.2862 11.8736L26.4452 12.0505C26.7146 12.0917 26.8224 12.44 26.6269 12.6403Z" fill="white"/>
</g>
</g>
<defs>
<clipPath id="clip0_3860_82692">
<path d="M0 7.46C0 3.33996 3.33996 0 7.46 0H99.54C103.66 0 107 3.33996 107 7.46V63.54C107 67.66 103.66 71 99.54 71H7.46C3.33995 71 0 67.66 0 63.54V7.46Z" fill="white"/>
</clipPath>
<clipPath id="clip1_3860_82692">
<rect width="38.1391" height="9.94783" fill="white" transform="translate(5.32172 8.08252)"/>
</clipPath>
</defs>
</svg>
