<svg width="280" height="36" viewBox="0 0 280 36" fill="none" xmlns="http://www.w3.org/2000/svg">
<rect width="280" height="36" rx="4" fill="black"/>
<path d="M113.5 10H112.5V26H113.5V10Z" fill="#3C4043"/>
<path fill-rule="evenodd" clip-rule="evenodd" d="M81.7645 12.6355V16.7185H84.2824C84.8823 16.7185 85.3783 16.5169 85.7707 16.1138C86.1733 15.7115 86.3752 15.2318 86.3752 14.6765C86.3752 14.1324 86.1733 13.6583 85.7707 13.2552C85.3783 12.8417 84.8823 12.6345 84.2824 12.6345H81.7645V12.6355ZM81.7645 18.1558V22.8921H80.2603V11.1982H84.2497C85.2634 11.1982 86.1239 11.5361 86.833 12.2108C87.5524 12.8856 87.9121 13.7078 87.9121 14.6765C87.9121 15.6677 87.5524 16.4955 86.833 17.159C86.135 17.8235 85.2736 18.1548 84.2497 18.1548H81.7645V18.1558Z" fill="white"/>
<path fill-rule="evenodd" clip-rule="evenodd" d="M89.4321 20.4422C89.4321 20.8342 89.5984 21.1608 89.9311 21.4221C90.2636 21.6834 90.6532 21.8141 91.0999 21.8141C91.7323 21.8141 92.2957 21.5798 92.7918 21.1123C93.288 20.6438 93.5355 20.0941 93.5355 19.4632C93.0665 19.0927 92.4125 18.9079 91.5735 18.9079C90.9625 18.9079 90.4534 19.0554 90.0451 19.3493C89.6367 19.6432 89.4321 20.0064 89.4321 20.4422ZM91.3782 14.6279C92.49 14.6279 93.3673 14.9247 94.0111 15.5183C94.6539 16.1118 94.9752 16.9256 94.9752 17.9597V22.892H93.5365V21.7814H93.471C92.8497 22.696 92.021 23.1533 90.9859 23.1533C90.103 23.1533 89.364 22.892 88.7706 22.3694C88.1765 21.8468 87.8794 21.1935 87.8794 20.4095C87.8794 19.5817 88.1923 18.9237 88.8192 18.4338C89.4461 17.9438 90.2824 17.6984 91.3288 17.6984C92.2219 17.6984 92.9581 17.8617 93.5355 18.1884V17.8449C93.5355 17.3223 93.3281 16.879 92.9143 16.5141C92.4993 16.1492 92.0154 15.9672 91.4595 15.9672C90.6196 15.9672 89.9554 16.3209 89.4649 17.0292L88.14 16.1958C88.8706 15.1506 89.9497 14.6279 91.3782 14.6279Z" fill="white"/>
<path fill-rule="evenodd" clip-rule="evenodd" d="M103.232 14.8896L98.2119 26.4202H96.659L98.523 22.3857L95.2202 14.8896H96.8552L99.2423 20.6386H99.275L101.597 14.8896H103.232Z" fill="white"/>
<path fill-rule="evenodd" clip-rule="evenodd" d="M75.6867 17.1339C75.6867 16.6607 75.6465 16.2043 75.5708 15.7676H69.2271V18.3555H72.8605C72.7045 19.1991 72.2326 19.9169 71.517 20.3975V22.0783H73.6855C74.9552 20.908 75.6867 19.1787 75.6867 17.1339Z" fill="#4285F4"/>
<path fill-rule="evenodd" clip-rule="evenodd" d="M69.2271 23.7011C71.0424 23.7011 72.5709 23.1056 73.6855 22.0791L71.517 20.3982C70.9134 20.8042 70.1361 21.0413 69.2271 21.0413C67.4725 21.0413 65.9832 19.8597 65.4507 18.2676H63.2168V19.9988C64.3239 22.1938 66.5989 23.7011 69.2271 23.7011Z" fill="#34A853"/>
<path fill-rule="evenodd" clip-rule="evenodd" d="M65.4505 18.2672C65.3141 17.8612 65.2393 17.4282 65.2393 16.9811C65.2393 16.5341 65.3141 16.1011 65.4505 15.6951V13.9639H63.2166C62.7588 14.871 62.5 15.8957 62.5 16.9811C62.5 18.0665 62.7588 19.0913 63.2166 19.9984L65.4505 18.2672Z" fill="#FABB05"/>
<path fill-rule="evenodd" clip-rule="evenodd" d="M69.2271 12.9215C70.2183 12.9215 71.1068 13.2622 71.8076 13.9295V13.9304L73.7275 12.0125C72.5615 10.9281 71.0414 10.2617 69.2271 10.2617C66.5989 10.2617 64.3239 11.7689 63.2168 13.964L65.4507 15.6952C65.9832 14.1031 67.4725 12.9215 69.2271 12.9215Z" fill="#E94235"/>
<path d="M126.046 23.224C125.215 23.224 124.469 22.9813 123.806 22.496C123.143 22.0106 122.686 21.3293 122.434 20.452L123.918 19.85C124.067 20.4006 124.331 20.851 124.709 21.201C125.087 21.551 125.542 21.726 126.074 21.726C126.569 21.726 126.989 21.5976 127.334 21.341C127.679 21.0843 127.852 20.732 127.852 20.284C127.852 19.8733 127.7 19.535 127.397 19.269C127.094 19.003 126.564 18.7346 125.808 18.464L125.178 18.24C124.506 18.0066 123.941 17.6706 123.484 17.232C123.027 16.7933 122.798 16.2146 122.798 15.496C122.798 15.0013 122.933 14.544 123.204 14.124C123.475 13.704 123.85 13.3703 124.331 13.123C124.812 12.8756 125.355 12.752 125.962 12.752C126.839 12.752 127.539 12.9643 128.062 13.389C128.585 13.8136 128.935 14.292 129.112 14.824L127.698 15.426C127.595 15.1086 127.399 14.8286 127.11 14.586C126.821 14.3433 126.447 14.222 125.99 14.222C125.533 14.222 125.148 14.3386 124.835 14.572C124.522 14.8053 124.366 15.104 124.366 15.468C124.366 15.8133 124.506 16.098 124.786 16.322C125.066 16.546 125.505 16.7606 126.102 16.966L126.732 17.176C127.591 17.4746 128.256 17.8643 128.727 18.345C129.198 18.8256 129.434 19.4673 129.434 20.27C129.434 20.9233 129.266 21.4716 128.93 21.915C128.594 22.3583 128.167 22.6873 127.649 22.902C127.131 23.1166 126.597 23.224 126.046 23.224ZM133.364 23.224C132.851 23.224 132.393 23.1236 131.992 22.923C131.591 22.7223 131.278 22.4376 131.054 22.069C130.83 21.7003 130.718 21.2826 130.718 20.816C130.718 20.0786 130.996 19.4953 131.551 19.066C132.106 18.6366 132.809 18.422 133.658 18.422C134.078 18.422 134.456 18.4616 134.792 18.541C135.128 18.6203 135.394 18.7066 135.59 18.8V18.436C135.59 17.9973 135.427 17.6403 135.1 17.365C134.773 17.0896 134.353 16.952 133.84 16.952C133.476 16.952 133.133 17.0313 132.811 17.19C132.489 17.3486 132.23 17.568 132.034 17.848L130.956 17.022C131.273 16.5833 131.684 16.2426 132.188 16C132.692 15.7573 133.252 15.636 133.868 15.636C134.904 15.636 135.702 15.8903 136.262 16.399C136.822 16.9076 137.102 17.6239 137.102 18.548V23H135.59V22.146H135.52C135.315 22.454 135.025 22.7106 134.652 22.916C134.279 23.1213 133.849 23.224 133.364 23.224ZM133.63 21.95C134.003 21.95 134.339 21.8613 134.638 21.684C134.937 21.5066 135.17 21.2686 135.338 20.97C135.506 20.6713 135.59 20.3493 135.59 20.004C135.375 19.8826 135.126 19.7846 134.841 19.71C134.556 19.6353 134.26 19.598 133.952 19.598C133.373 19.598 132.949 19.7123 132.678 19.941C132.407 20.1696 132.272 20.466 132.272 20.83C132.272 21.1566 132.398 21.425 132.65 21.635C132.902 21.845 133.229 21.95 133.63 21.95ZM137.994 15.86H139.716L141.69 21.012H141.746L143.762 15.86H145.442L142.474 23H140.934L137.994 15.86ZM149.638 23.224C148.938 23.224 148.31 23.0606 147.755 22.734C147.2 22.4073 146.766 21.957 146.453 21.383C146.14 20.809 145.984 20.1626 145.984 19.444C145.984 18.7626 146.136 18.1303 146.439 17.547C146.742 16.9636 147.165 16.4993 147.706 16.154C148.247 15.8086 148.863 15.636 149.554 15.636C150.273 15.636 150.896 15.7946 151.423 16.112C151.95 16.4293 152.352 16.8633 152.627 17.414C152.902 17.9646 153.04 18.5853 153.04 19.276C153.04 19.4066 153.026 19.57 152.998 19.766H147.524C147.58 20.4286 147.816 20.9396 148.231 21.299C148.646 21.6583 149.129 21.838 149.68 21.838C150.119 21.838 150.499 21.7376 150.821 21.537C151.143 21.3363 151.402 21.0633 151.598 20.718L152.9 21.334C152.564 21.922 152.125 22.384 151.584 22.72C151.043 23.056 150.394 23.224 149.638 23.224ZM151.472 18.59C151.453 18.338 151.374 18.0883 151.234 17.841C151.094 17.5936 150.882 17.386 150.597 17.218C150.312 17.05 149.965 16.966 149.554 16.966C149.059 16.966 148.642 17.113 148.301 17.407C147.96 17.701 147.725 18.0953 147.594 18.59H151.472ZM160.942 23.112C160.625 23.112 160.326 23.0606 160.046 22.958C159.766 22.8553 159.537 22.72 159.36 22.552C158.959 22.1506 158.758 21.6046 158.758 20.914V17.218H157.512V15.86H158.758V13.844H160.298V15.86H162.034V17.218H160.298V20.578C160.298 20.9606 160.373 21.2313 160.522 21.39C160.662 21.5766 160.905 21.67 161.25 21.67C161.409 21.67 161.549 21.649 161.67 21.607C161.791 21.565 161.922 21.4973 162.062 21.404V22.902C161.754 23.042 161.381 23.112 160.942 23.112ZM166.72 23.224C166.001 23.224 165.357 23.0583 164.788 22.727C164.219 22.3956 163.775 21.9406 163.458 21.362C163.141 20.7833 162.982 20.1393 162.982 19.43C162.982 18.7206 163.141 18.0766 163.458 17.498C163.775 16.9193 164.219 16.4643 164.788 16.133C165.357 15.8016 166.001 15.636 166.72 15.636C167.439 15.636 168.083 15.804 168.652 16.14C169.221 16.476 169.665 16.9333 169.982 17.512C170.299 18.0906 170.458 18.7299 170.458 19.43C170.458 20.1393 170.299 20.7833 169.982 21.362C169.665 21.9406 169.221 22.3956 168.652 22.727C168.083 23.0583 167.439 23.224 166.72 23.224ZM166.72 21.81C167.112 21.81 167.476 21.7143 167.812 21.523C168.148 21.3316 168.416 21.0563 168.617 20.697C168.818 20.3376 168.918 19.9153 168.918 19.43C168.918 18.9446 168.818 18.5246 168.617 18.17C168.416 17.8153 168.148 17.5423 167.812 17.351C167.476 17.1596 167.112 17.064 166.72 17.064C166.328 17.064 165.964 17.1596 165.628 17.351C165.292 17.5423 165.024 17.8153 164.823 18.17C164.622 18.5246 164.522 18.9446 164.522 19.43C164.522 19.9153 164.622 20.3376 164.823 20.697C165.024 21.0563 165.292 21.3316 165.628 21.523C165.964 21.7143 166.328 21.81 166.72 21.81ZM175.392 15.86H176.862V16.798H176.932C177.137 16.4713 177.441 16.196 177.842 15.972C178.243 15.748 178.696 15.636 179.2 15.636C179.844 15.636 180.427 15.7993 180.95 16.126C181.473 16.4526 181.886 16.903 182.189 17.477C182.492 18.051 182.644 18.702 182.644 19.43C182.644 20.158 182.492 20.809 182.189 21.383C181.886 21.957 181.473 22.4073 180.95 22.734C180.427 23.0606 179.844 23.224 179.2 23.224C178.696 23.224 178.243 23.112 177.842 22.888C177.441 22.664 177.137 22.3933 176.932 22.076H176.862L176.932 23.07V26.024H175.392V15.86ZM178.976 21.81C179.349 21.81 179.699 21.712 180.026 21.516C180.353 21.32 180.614 21.04 180.81 20.676C181.006 20.312 181.104 19.8966 181.104 19.43C181.104 18.9633 181.006 18.5503 180.81 18.191C180.614 17.8316 180.353 17.554 180.026 17.358C179.699 17.162 179.349 17.064 178.976 17.064C178.603 17.064 178.255 17.162 177.933 17.358C177.611 17.554 177.352 17.8316 177.156 18.191C176.96 18.5503 176.862 18.9633 176.862 19.43C176.862 19.8966 176.96 20.312 177.156 20.676C177.352 21.04 177.611 21.32 177.933 21.516C178.255 21.712 178.603 21.81 178.976 21.81ZM184.054 12.976H185.594V15.706L185.524 16.798H185.594C185.799 16.462 186.105 16.1843 186.511 15.965C186.917 15.7456 187.353 15.636 187.82 15.636C188.688 15.636 189.351 15.8903 189.808 16.399C190.265 16.9076 190.494 17.6006 190.494 18.478V23H188.954V18.688C188.954 18.1466 188.812 17.7406 188.527 17.47C188.242 17.1993 187.871 17.064 187.414 17.064C187.069 17.064 186.758 17.162 186.483 17.358C186.208 17.554 185.991 17.813 185.832 18.135C185.673 18.457 185.594 18.8 185.594 19.164V23H184.054V12.976ZM195.74 23.224C195.021 23.224 194.377 23.0583 193.808 22.727C193.239 22.3956 192.795 21.9406 192.478 21.362C192.161 20.7833 192.002 20.1393 192.002 19.43C192.002 18.7206 192.161 18.0766 192.478 17.498C192.795 16.9193 193.239 16.4643 193.808 16.133C194.377 15.8016 195.021 15.636 195.74 15.636C196.459 15.636 197.103 15.804 197.672 16.14C198.241 16.476 198.685 16.9333 199.002 17.512C199.319 18.0906 199.478 18.7299 199.478 19.43C199.478 20.1393 199.319 20.7833 199.002 21.362C198.685 21.9406 198.241 22.3956 197.672 22.727C197.103 23.0583 196.459 23.224 195.74 23.224ZM195.74 21.81C196.132 21.81 196.496 21.7143 196.832 21.523C197.168 21.3316 197.436 21.0563 197.637 20.697C197.838 20.3376 197.938 19.9153 197.938 19.43C197.938 18.9446 197.838 18.5246 197.637 18.17C197.436 17.8153 197.168 17.5423 196.832 17.351C196.496 17.1596 196.132 17.064 195.74 17.064C195.348 17.064 194.984 17.1596 194.648 17.351C194.312 17.5423 194.044 17.8153 193.843 18.17C193.642 18.5246 193.542 18.9446 193.542 19.43C193.542 19.9153 193.642 20.3376 193.843 20.697C194.044 21.0563 194.312 21.3316 194.648 21.523C194.984 21.7143 195.348 21.81 195.74 21.81ZM200.902 15.86H202.372V16.798H202.442C202.647 16.462 202.953 16.1843 203.359 15.965C203.765 15.7456 204.197 15.636 204.654 15.636C205.522 15.636 206.182 15.8903 206.635 16.399C207.088 16.9076 207.314 17.6006 207.314 18.478V23H205.774V18.688C205.774 18.128 205.636 17.7173 205.361 17.456C205.086 17.1946 204.705 17.064 204.22 17.064C203.875 17.064 203.567 17.1596 203.296 17.351C203.025 17.5423 202.815 17.7966 202.666 18.114C202.517 18.4313 202.442 18.772 202.442 19.136V23H200.902V15.86ZM212.462 23.224C211.762 23.224 211.134 23.0606 210.579 22.734C210.024 22.4073 209.59 21.957 209.277 21.383C208.964 20.809 208.808 20.1626 208.808 19.444C208.808 18.7626 208.96 18.1303 209.263 17.547C209.566 16.9636 209.989 16.4993 210.53 16.154C211.071 15.8086 211.687 15.636 212.378 15.636C213.097 15.636 213.72 15.7946 214.247 16.112C214.774 16.4293 215.176 16.8633 215.451 17.414C215.726 17.9646 215.864 18.5853 215.864 19.276C215.864 19.4066 215.85 19.57 215.822 19.766H210.348C210.404 20.4286 210.64 20.9396 211.055 21.299C211.47 21.6583 211.953 21.838 212.504 21.838C212.943 21.838 213.323 21.7376 213.645 21.537C213.967 21.3363 214.226 21.0633 214.422 20.718L215.724 21.334C215.388 21.922 214.949 22.384 214.408 22.72C213.867 23.056 213.218 23.224 212.462 23.224ZM214.296 18.59C214.277 18.338 214.198 18.0883 214.058 17.841C213.918 17.5936 213.706 17.386 213.421 17.218C213.136 17.05 212.789 16.966 212.378 16.966C211.883 16.966 211.466 17.113 211.125 17.407C210.784 17.701 210.549 18.0953 210.418 18.59H214.296Z" fill="white"/>
</svg>
