<svg width="343" height="50" viewBox="0 0 343 50" fill="none" xmlns="http://www.w3.org/2000/svg">
<g opacity="0.15">
<path d="M0 6.4C0 4.15979 0 3.03969 0.435974 2.18404C0.819467 1.43139 1.43139 0.819467 2.18404 0.435974C3.03969 0 4.15979 0 6.4 0H336.6C338.84 0 339.96 0 340.816 0.435974C341.569 0.819467 342.181 1.43139 342.564 2.18404C343 3.03969 343 4.15979 343 6.4V43.6C343 45.8402 343 46.9603 342.564 47.816C342.181 48.5686 341.569 49.1805 340.816 49.564C339.96 50 338.84 50 336.6 50H6.39999C4.15979 50 3.03969 50 2.18404 49.564C1.43139 49.1805 0.819467 48.5686 0.435974 47.816C0 46.9603 0 45.8402 0 43.6V6.4Z" fill="black"/>
<path d="M110.622 18.541L105.915 31.5H103.991L109.411 17.2812H110.652L110.622 18.541ZM114.568 31.5L109.851 18.541L109.822 17.2812H111.062L116.501 31.5H114.568ZM114.323 26.2363V27.7793H106.335V26.2363H114.323ZM125.292 29.4492V16.5H127.109V31.5H125.448L125.292 29.4492ZM118.183 26.334V26.1289C118.183 25.3216 118.281 24.5892 118.476 23.9316C118.678 23.2676 118.961 22.6979 119.325 22.2227C119.697 21.7474 120.136 21.3828 120.644 21.1289C121.158 20.8685 121.731 20.7383 122.363 20.7383C123.027 20.7383 123.606 20.8555 124.101 21.0898C124.602 21.3177 125.025 21.653 125.37 22.0957C125.722 22.5319 125.999 23.0592 126.2 23.6777C126.402 24.2962 126.542 24.9961 126.62 25.7773V26.6758C126.549 27.4505 126.409 28.1471 126.2 28.7656C125.999 29.3841 125.722 29.9115 125.37 30.3477C125.025 30.7839 124.602 31.1191 124.101 31.3535C123.6 31.5814 123.014 31.6953 122.343 31.6953C121.725 31.6953 121.158 31.5618 120.644 31.2949C120.136 31.028 119.697 30.6536 119.325 30.1719C118.961 29.6901 118.678 29.1237 118.476 28.4727C118.281 27.8151 118.183 27.1022 118.183 26.334ZM119.999 26.1289V26.334C119.999 26.8613 120.051 27.3561 120.156 27.8184C120.266 28.2806 120.435 28.6875 120.663 29.0391C120.891 29.3906 121.181 29.6673 121.532 29.8691C121.884 30.0645 122.304 30.1621 122.792 30.1621C123.391 30.1621 123.883 30.0352 124.267 29.7812C124.657 29.5273 124.97 29.1921 125.204 28.7754C125.439 28.3587 125.621 27.9062 125.751 27.418V25.0645C125.673 24.7064 125.559 24.3613 125.409 24.0293C125.266 23.6908 125.077 23.3913 124.843 23.1309C124.615 22.8639 124.332 22.6523 123.993 22.4961C123.661 22.3398 123.267 22.2617 122.812 22.2617C122.317 22.2617 121.891 22.3659 121.532 22.5742C121.181 22.776 120.891 23.056 120.663 23.4141C120.435 23.7656 120.266 24.1758 120.156 24.6445C120.051 25.1068 119.999 25.6016 119.999 26.1289ZM137.081 29.4492V16.5H138.898V31.5H137.238L137.081 29.4492ZM129.972 26.334V26.1289C129.972 25.3216 130.07 24.5892 130.265 23.9316C130.467 23.2676 130.75 22.6979 131.115 22.2227C131.486 21.7474 131.925 21.3828 132.433 21.1289C132.947 20.8685 133.52 20.7383 134.152 20.7383C134.816 20.7383 135.395 20.8555 135.89 21.0898C136.391 21.3177 136.814 21.653 137.159 22.0957C137.511 22.5319 137.788 23.0592 137.99 23.6777C138.191 24.2962 138.331 24.9961 138.409 25.7773V26.6758C138.338 27.4505 138.198 28.1471 137.99 28.7656C137.788 29.3841 137.511 29.9115 137.159 30.3477C136.814 30.7839 136.391 31.1191 135.89 31.3535C135.389 31.5814 134.803 31.6953 134.132 31.6953C133.514 31.6953 132.947 31.5618 132.433 31.2949C131.925 31.028 131.486 30.6536 131.115 30.1719C130.75 29.6901 130.467 29.1237 130.265 28.4727C130.07 27.8151 129.972 27.1022 129.972 26.334ZM131.788 26.1289V26.334C131.788 26.8613 131.84 27.3561 131.945 27.8184C132.055 28.2806 132.225 28.6875 132.452 29.0391C132.68 29.3906 132.97 29.6673 133.322 29.8691C133.673 30.0645 134.093 30.1621 134.581 30.1621C135.18 30.1621 135.672 30.0352 136.056 29.7812C136.447 29.5273 136.759 29.1921 136.993 28.7754C137.228 28.3587 137.41 27.9062 137.54 27.418V25.0645C137.462 24.7064 137.348 24.3613 137.198 24.0293C137.055 23.6908 136.866 23.3913 136.632 23.1309C136.404 22.8639 136.121 22.6523 135.782 22.4961C135.45 22.3398 135.057 22.2617 134.601 22.2617C134.106 22.2617 133.68 22.3659 133.322 22.5742C132.97 22.776 132.68 23.056 132.452 23.4141C132.225 23.7656 132.055 24.1758 131.945 24.6445C131.84 25.1068 131.788 25.6016 131.788 26.1289ZM152.808 17.2812V31.5H150.952V17.2812H152.808ZM157.378 17.2812V18.8242H146.392V17.2812H157.378ZM158.259 26.334V26.1094C158.259 25.3477 158.37 24.6413 158.591 23.9902C158.812 23.3327 159.131 22.763 159.548 22.2812C159.965 21.793 160.469 21.4154 161.062 21.1484C161.654 20.875 162.318 20.7383 163.054 20.7383C163.796 20.7383 164.463 20.875 165.056 21.1484C165.655 21.4154 166.163 21.793 166.579 22.2812C167.003 22.763 167.325 23.3327 167.546 23.9902C167.767 24.6413 167.878 25.3477 167.878 26.1094V26.334C167.878 27.0957 167.767 27.8021 167.546 28.4531C167.325 29.1042 167.003 29.6738 166.579 30.1621C166.163 30.6439 165.658 31.0215 165.066 31.2949C164.48 31.5618 163.816 31.6953 163.073 31.6953C162.331 31.6953 161.664 31.5618 161.072 31.2949C160.479 31.0215 159.971 30.6439 159.548 30.1621C159.131 29.6738 158.812 29.1042 158.591 28.4531C158.37 27.8021 158.259 27.0957 158.259 26.334ZM160.066 26.1094V26.334C160.066 26.8613 160.128 27.3594 160.251 27.8281C160.375 28.2904 160.56 28.7005 160.808 29.0586C161.062 29.4167 161.378 29.6999 161.755 29.9082C162.133 30.11 162.572 30.2109 163.073 30.2109C163.568 30.2109 164.001 30.11 164.372 29.9082C164.75 29.6999 165.062 29.4167 165.31 29.0586C165.557 28.7005 165.743 28.2904 165.866 27.8281C165.997 27.3594 166.062 26.8613 166.062 26.334V26.1094C166.062 25.5885 165.997 25.097 165.866 24.6348C165.743 24.166 165.554 23.7526 165.3 23.3945C165.053 23.0299 164.74 22.7435 164.363 22.5352C163.991 22.3268 163.555 22.2227 163.054 22.2227C162.559 22.2227 162.123 22.3268 161.745 22.5352C161.374 22.7435 161.062 23.0299 160.808 23.3945C160.56 23.7526 160.375 24.166 160.251 24.6348C160.128 25.097 160.066 25.5885 160.066 26.1094Z" fill="white"/>
<path d="M206.451 24.673V31.7491H204.19V14.2754H210.184C211.703 14.2754 212.998 14.7783 214.058 15.7842C215.141 16.79 215.683 18.0181 215.683 19.4684C215.683 20.9537 215.141 22.1818 214.058 23.176C213.01 24.1701 211.715 24.6613 210.184 24.6613H206.451V24.673ZM206.451 16.4274V22.521H210.231C211.126 22.521 211.88 22.2169 212.468 21.6204C213.069 21.0239 213.375 20.2988 213.375 19.4801C213.375 18.673 213.069 17.9596 212.468 17.3631C211.88 16.7432 211.138 16.4391 210.231 16.4391H206.451V16.4274Z" fill="white"/>
<path d="M221.594 19.3984C223.266 19.3984 224.585 19.8429 225.55 20.7318C226.516 21.6207 226.999 22.837 226.999 24.3809V31.7493H224.844V30.0885H224.75C223.819 31.4569 222.571 32.1353 221.017 32.1353C219.686 32.1353 218.58 31.7493 217.685 30.9657C216.79 30.1821 216.342 29.2113 216.342 28.0417C216.342 26.8019 216.813 25.8195 217.755 25.0943C218.697 24.3575 219.957 23.9949 221.523 23.9949C222.866 23.9949 223.973 24.2405 224.832 24.7318V24.2171C224.832 23.4335 224.526 22.7785 223.902 22.2288C223.278 21.6791 222.548 21.4101 221.712 21.4101C220.452 21.4101 219.451 21.9364 218.721 23.0008L216.731 21.761C217.826 20.1821 219.451 19.3984 221.594 19.3984ZM218.674 28.0768C218.674 28.6616 218.921 29.1528 219.427 29.5388C219.922 29.9247 220.511 30.1236 221.182 30.1236C222.136 30.1236 222.983 29.7727 223.725 29.0709C224.467 28.3692 224.844 27.5505 224.844 26.6031C224.137 26.0534 223.16 25.7727 221.9 25.7727C220.982 25.7727 220.216 25.9949 219.604 26.4277C218.98 26.8838 218.674 27.4335 218.674 28.0768Z" fill="white"/>
<path d="M239.292 19.7832L231.756 36.9996H229.424L232.227 30.9762L227.258 19.7832H229.719L233.298 28.368H233.346L236.831 19.7832H239.292Z" fill="white"/>
<path d="M197.459 23.2451C197.459 22.5129 197.393 21.8124 197.27 21.1387H187.794V24.9983L193.251 24.9995C193.03 26.2837 192.318 27.3784 191.226 28.1083V30.6123H194.475C196.372 28.8685 197.459 26.2907 197.459 23.2451Z" fill="#4285F4"/>
<path d="M191.227 28.109C190.323 28.7149 189.158 29.0693 187.796 29.0693C185.164 29.0693 182.932 27.3079 182.132 24.9336H178.781V27.5161C180.441 30.7886 183.854 33.0342 187.796 33.0342C190.521 33.0342 192.81 32.1441 194.476 30.612L191.227 28.109Z" fill="#34A853"/>
<path d="M181.817 23.017C181.817 22.3503 181.928 21.7059 182.132 21.1V18.5176H178.781C178.094 19.8708 177.708 21.3983 177.708 23.017C177.708 24.6357 178.096 26.1632 178.781 27.5164L182.132 24.9339C181.928 24.3281 181.817 23.6837 181.817 23.017Z" fill="#FABB05"/>
<path d="M187.796 16.9649C189.283 16.9649 190.615 17.4737 191.666 18.4678L194.545 15.6105C192.797 13.993 190.517 13 187.796 13C183.855 13 180.441 15.2456 178.781 18.5181L182.132 21.1006C182.932 18.7263 185.164 16.9649 187.796 16.9649Z" fill="#E94235"/>
</g>
</svg>
