<svg width="98" height="24" viewBox="0 0 98 24" fill="none" xmlns="http://www.w3.org/2000/svg">
<g clip-path="url(#clip0)">
<path d="M75.4583 0.62015V3.74767H74.804C70.3517 3.74767 65.8641 6.91008 65.8641 14.0027V23.2108H62.9131V0.950351H65.8641V5.70471C67.9491 2.41881 71.4105 0.49666 75.0321 0.601358L75.4583 0.62015Z" fill="#636569"/>
<path d="M87.629 0.45105C81.6266 0.45105 76.9326 5.53561 76.9326 12.0323V12.1182C76.9326 18.7168 81.6781 23.6994 87.9738 23.6994C92.7383 23.6994 95.4206 21.4873 97.245 19.549L97.5545 19.2081L95.4559 17.3719L95.1464 17.694C93.0831 19.8873 90.8298 20.9074 88.0444 20.9074C83.8147 20.9074 80.5813 17.8282 80.0655 13.3557H97.9182L97.9698 12.9638C98.0051 12.6068 98.0051 12.4698 98.0051 12.0806C97.9997 5.22957 93.7347 0.45105 87.629 0.45105ZM80.0601 10.639C80.6112 6.3034 83.6898 3.2081 87.5585 3.2081C92.3393 3.2081 94.4378 7.1034 94.8342 10.639H80.0601Z" fill="#636569"/>
<path d="M32.9228 9.78788V23.2134H29.9663V10.0322C29.9663 5.67513 27.789 3.17044 23.9828 3.17044C20.9042 3.17044 17.5921 5.39325 17.5921 10.2953V23.2107H14.6221V9.90869C14.6221 6.00533 12.6403 3.50332 9.41775 3.20533C9.26029 3.17043 9.10012 3.17044 8.93994 3.17044H8.74447C5.06316 3.25634 2.95645 5.74493 2.95645 10.0322V23.2107H0V9.78788C0 4.0805 3.43426 0.405334 8.76348 0.405334C8.85035 0.405334 8.93994 0.405334 9.02953 0.424126C10.9598 0.459026 12.643 0.982516 14.0737 1.99997C14.2882 2.13956 14.4809 2.29527 14.6764 2.47245C15.4392 3.15701 15.9876 3.90869 16.3759 4.57446C16.4112 4.53956 16.4302 4.48587 16.4655 4.45097C18.3197 1.76909 20.9069 0.405334 24.162 0.405334C29.4912 0.405334 32.9228 4.0805 32.9228 9.78788Z" fill="#636569"/>
<path d="M47.6831 24C54.3853 24 59.8184 18.6274 59.8184 12C59.8184 5.37258 54.3853 0 47.6831 0C40.981 0 35.5479 5.37258 35.5479 12C35.5479 18.6274 40.981 24 47.6831 24Z" fill="#FF7F30"/>
<path d="M48.4402 5.3799L49.7732 8.05104C50.0691 8.64164 50.6392 9.05238 51.2962 9.14634L54.2771 9.57587C54.9694 9.6752 55.2436 10.5155 54.7441 10.996L52.5885 13.0739C52.1107 13.5329 51.8935 14.196 52.0075 14.8457L52.5179 17.7799C52.6346 18.4618 51.9125 18.9799 51.2962 18.6577L48.6303 17.2725C48.0411 16.9665 47.3353 16.9665 46.7462 17.2725L44.0802 18.6577C43.4612 18.9799 42.7391 18.4591 42.8585 17.7799L43.3689 14.8457C43.4802 14.196 43.263 13.5329 42.7879 13.0739L40.6324 10.996C40.1328 10.5128 40.407 9.6752 41.0993 9.57587L44.0802 9.14634C44.7399 9.05238 45.31 8.64164 45.6032 8.05104L46.9362 5.3799C47.2376 4.76245 48.1307 4.76245 48.4402 5.3799Z" fill="white"/>
</g>
<defs>
<clipPath id="clip0">
<rect width="98" height="24" fill="white"/>
</clipPath>
</defs>
</svg>
