<svg viewBox="0 0 188 64" fill="none" xmlns="http://www.w3.org/2000/svg">
<path d="M187.546 56.1678C187.546 54.7534 186.68 53.3203 185.028 53.3203C183.539 53.3203 182.408 54.5307 182.408 56.14V56.1632C182.408 57.8096 183.548 59.0061 185.121 59.0061C186.001 59.0107 186.829 58.5934 187.35 57.8838L187.462 57.74L186.927 57.318L186.811 57.4664C186.415 57.9997 185.796 58.3197 185.131 58.329C184.074 58.329 183.278 57.5731 183.153 56.4647H187.546V56.1678ZM183.148 55.8015C183.278 54.7394 184.032 53.9928 185.005 53.9928C186.117 53.9928 186.694 54.8739 186.801 55.8015H183.148Z" fill="#636569"/>
<path d="M178.904 53.3202C178.094 53.3063 177.326 53.6819 176.842 54.3266V53.4408H176.144V60.4901H176.842V58.0135C177.335 58.6489 178.099 59.0153 178.904 59.006C180.416 59.006 181.603 57.7631 181.603 56.1538C181.603 54.5631 180.416 53.3202 178.904 53.3202ZM178.876 54.0019C180.021 54.0019 180.886 54.9295 180.886 56.1631V56.1816C180.886 57.4385 180.058 58.3196 178.876 58.3196C177.726 58.3196 176.819 57.3782 176.819 56.1538C176.819 54.948 177.722 54.0019 178.876 54.0019Z" fill="#636569"/>
<path d="M175.022 53.4363V56.5482C175.004 57.8977 173.91 58.9829 172.556 58.9969C171.165 58.9969 170.271 58.0508 170.271 56.5853V53.4316H170.969V56.5342C170.969 57.6705 171.565 58.3198 172.598 58.3198C173.57 58.3198 174.329 57.5082 174.329 56.474V53.4316H175.022V53.4363Z" fill="#636569"/>
<path d="M166.623 53.274C165.068 53.2647 163.803 54.5076 163.789 56.0566C163.789 56.0751 163.789 56.0983 163.789 56.1169V56.1354C163.816 57.6891 165.101 58.9273 166.66 58.8995C168.219 58.8717 169.461 57.5917 169.434 56.038C169.406 54.5076 168.158 53.2786 166.623 53.274ZM166.623 58.2827C165.441 58.2827 164.519 57.332 164.519 56.103C164.519 54.874 165.413 53.9464 166.599 53.9464C167.768 53.9464 168.717 54.8879 168.717 56.052C168.717 56.0705 168.717 56.0844 168.717 56.103V56.1215C168.717 57.3551 167.819 58.2827 166.623 58.2827Z" fill="#636569"/>
<path d="M162.797 51.1636H162.085V58.876H162.797V51.1636Z" fill="#636569"/>
<path d="M160.34 53.9601C159.935 53.5566 159.344 53.3525 158.59 53.3525C157.939 53.3572 157.292 53.5149 156.715 53.8163L156.552 53.8905L156.822 54.5212L157.004 54.4331C157.488 54.1734 158.023 54.0343 158.572 54.0296C159.316 54.0296 160.201 54.294 160.201 55.5508V55.6389C159.67 55.4951 159.121 55.4209 158.572 55.4209C157.092 55.4209 156.133 56.1351 156.133 57.2389V57.2575C156.133 58.4493 157.227 58.992 158.251 58.992C160.122 58.992 160.899 57.8696 160.899 56.8401V55.5276C160.931 54.9572 160.731 54.3914 160.34 53.9601ZM160.215 56.8725C160.215 57.7166 159.363 58.3241 158.269 58.3241C157.562 58.3241 156.855 57.9902 156.855 57.2204C156.855 56.3949 157.734 56.098 158.563 56.098C159.121 56.0934 159.679 56.1722 160.215 56.3346V56.8725Z" fill="#636569"/>
<path d="M153.466 54.0993V57.3596C153.466 57.9764 153.76 58.2918 154.341 58.2918C154.579 58.2872 154.816 58.2315 155.03 58.1295L155.295 58.0043V58.7231L155.193 58.7741C154.918 58.904 154.616 58.9689 154.313 58.9643C153.35 58.9643 152.773 58.3753 152.773 57.3875V51.7295H153.466V53.4269H155.314V54.0947H153.466V54.0993Z" fill="#636569"/>
<path d="M151.708 55.7226V58.8762H151.014V55.769C151.014 54.6374 150.418 53.9835 149.381 53.9835C148.413 53.9835 147.649 54.7951 147.649 55.8293V58.8716H146.956V53.4269H147.649V54.1365C148.082 53.6032 148.734 53.2971 149.423 53.3064C150.809 53.3156 151.708 54.2617 151.708 55.7226Z" fill="#636569"/>
<path d="M145.462 53.9601C145.057 53.5566 144.466 53.3525 143.712 53.3525C143.061 53.3572 142.419 53.5149 141.837 53.8163L141.674 53.8905L141.944 54.5212L142.121 54.4331C142.605 54.1734 143.145 54.0343 143.689 54.0296C144.434 54.0296 145.318 54.294 145.318 55.5508V55.6389C144.787 55.4951 144.238 55.4209 143.689 55.4209C142.209 55.4209 141.25 56.1351 141.25 57.2389V57.2575C141.25 58.4493 142.344 58.992 143.368 58.992C145.239 58.992 146.016 57.8696 146.016 56.8401V55.5276C146.049 54.9572 145.848 54.3914 145.462 53.9601ZM145.332 56.8725C145.332 57.7166 144.48 58.3241 143.387 58.3241C142.679 58.3241 141.972 57.9902 141.972 57.2204C141.972 56.3949 142.851 56.098 143.68 56.098C144.238 56.0934 144.797 56.1722 145.332 56.3346V56.8725Z" fill="#636569"/>
<path d="M140.418 57.7866L140.292 57.9258C139.664 58.6585 138.956 58.9971 138.072 58.9971C136.522 58.9785 135.275 57.7124 135.289 56.1681V56.1449C135.28 54.5959 136.527 53.3298 138.081 53.3159C139.152 53.3159 139.799 53.8446 140.245 54.3084L140.371 54.4382L139.873 54.9345L139.743 54.7953C139.222 54.2388 138.705 53.993 138.072 53.993C136.913 53.993 136.011 54.9345 136.011 56.1449C136.011 57.36 136.946 58.3293 138.095 58.3293C138.728 58.3293 139.263 58.0603 139.78 57.4898L139.906 57.3507L140.418 57.7866Z" fill="#636569"/>
<path d="M125.884 59.8687C126.075 59.7481 127.331 60.7128 127.731 61.3435C128.076 61.8861 128.062 62.5075 127.699 62.7348C127.34 62.962 126.768 62.707 126.428 62.1644C126.023 61.529 125.684 59.9939 125.884 59.8687Z" fill="#FF7F30"/>
<path d="M127.043 58.1294C127.159 57.9161 128.853 58.1758 129.561 58.5653C130.17 58.8993 130.482 59.4975 130.259 59.8964C130.035 60.2998 129.365 60.3555 128.755 60.0216C128.048 59.632 126.917 58.352 127.043 58.1294Z" fill="#FF7F30"/>
<path d="M127.289 56.126C127.289 55.8663 129.016 55.231 129.89 55.231C130.635 55.231 131.24 55.6298 131.24 56.126C131.24 56.6223 130.635 57.0211 129.89 57.0211C129.016 57.0211 127.289 56.3997 127.289 56.126Z" fill="#FF7F30"/>
<path d="M127.043 54.0995C127.159 54.3128 128.853 54.0531 129.561 53.6636C130.17 53.3296 130.482 52.7314 130.259 52.3325C130.035 51.9291 129.365 51.8734 128.755 52.2073C128.048 52.5969 126.917 53.8769 127.043 54.0995Z" fill="#FF7F30"/>
<path d="M125.884 52.3647C126.075 52.4852 127.331 51.5206 127.731 50.8899C128.076 50.3473 128.062 49.7258 127.699 49.4986C127.34 49.2713 126.768 49.5264 126.428 50.069C126.023 50.6997 125.684 52.2394 125.884 52.3647Z" fill="#FF7F30"/>
<path d="M115.548 56.1307C115.548 56.2699 115.553 56.409 115.557 56.5527C115.79 60.8612 119.485 64.1678 123.813 63.9359C124.157 63.9174 124.502 63.8757 124.841 63.8107C125.069 63.769 125.214 63.551 125.172 63.3284C125.172 63.3191 125.167 63.3145 125.167 63.3052L124.665 61.2646C124.623 61.0977 124.492 60.9725 124.325 60.9307C122.049 60.4484 120.42 58.4449 120.42 56.1261V56.1029C120.42 53.7841 122.049 51.7806 124.325 51.2983C124.492 51.2612 124.623 51.1313 124.665 50.9643L125.167 48.9238C125.223 48.7012 125.088 48.4785 124.865 48.4229C124.855 48.4229 124.851 48.4183 124.841 48.4183C120.583 47.6206 116.483 50.4125 115.683 54.6559C115.618 54.9945 115.576 55.333 115.557 55.6762C115.548 55.8154 115.548 55.9591 115.548 56.0983V56.1307Z" fill="#FF7F30"/>
<path d="M59.6842 54.1783C59.3212 53.7285 58.7767 53.4966 58.06 53.4966C57.3666 53.4966 56.8268 53.7285 56.4452 54.1922V53.8722C56.4452 53.7934 56.4173 53.7285 56.3661 53.6775C56.3149 53.6264 56.2497 53.5986 56.1706 53.5986H55.7052C55.6261 53.5986 55.561 53.6264 55.5098 53.6775C55.4586 53.7285 55.4307 53.7934 55.4307 53.8722V60.5644C55.4307 60.6433 55.4586 60.7082 55.5098 60.7592C55.561 60.8102 55.6261 60.838 55.7052 60.838H56.1985C56.2776 60.838 56.3428 60.8102 56.3893 60.7592C56.4359 60.7082 56.4591 60.6433 56.4591 60.5644V58.343C56.8501 58.7928 57.3899 59.0247 58.0554 59.0247C58.7674 59.0247 59.3119 58.7928 59.6749 58.3383C60.0379 57.8885 60.2333 57.3041 60.2613 56.6085C60.2706 56.5343 60.2706 56.4137 60.2706 56.2606C60.2706 56.1076 60.2659 55.9917 60.2613 55.9175C60.238 55.2079 60.0425 54.6235 59.6842 54.1783ZM57.846 54.3963C58.7721 54.3963 59.2188 55.0038 59.2188 56.2606C59.2188 56.3859 59.2142 56.4832 59.2095 56.5528C59.1909 57.0259 59.0699 57.4108 58.8605 57.6983C58.6511 57.9812 58.3113 58.125 57.846 58.125C57.4085 58.125 57.0688 57.9812 56.8361 57.6983C56.5988 57.4108 56.4731 57.0722 56.4591 56.6873L56.4498 56.2977L56.4591 55.9175C56.4778 55.5047 56.6034 55.143 56.8314 54.8461C57.0548 54.5447 57.3992 54.3963 57.846 54.3963Z" fill="#636569"/>
<path d="M65.2875 54.1363C64.8686 53.7097 64.2822 53.4917 63.5377 53.4917C62.7931 53.4917 62.2067 53.7097 61.7878 54.1363C61.369 54.563 61.1456 55.1288 61.1177 55.8198L61.1084 56.2558L61.1177 56.6917C61.1456 57.392 61.369 57.9578 61.7832 58.3798C62.1974 58.8018 62.7884 59.0152 63.5377 59.0152C64.2869 59.0152 64.8779 58.8018 65.2921 58.3798C65.7063 57.9578 65.9297 57.3874 65.9576 56.6917C65.9622 56.6129 65.9669 56.4645 65.9669 56.2558C65.9669 56.0424 65.9622 55.8987 65.9576 55.8198C65.9297 55.1288 65.7063 54.563 65.2875 54.1363ZM62.1741 55.8755C62.1881 55.3839 62.3184 55.0036 62.5557 54.7439C62.7977 54.4842 63.1235 54.3543 63.5377 54.3543C63.9472 54.3543 64.2776 54.4842 64.5149 54.7439C64.7523 55.0036 64.8826 55.3839 64.9059 55.8801C64.9105 55.9497 64.9152 56.0795 64.9152 56.2604C64.9152 56.4413 64.9105 56.5711 64.9059 56.6407C64.8872 57.1323 64.7569 57.5126 64.5149 57.7723C64.2776 58.032 63.9518 58.1618 63.5377 58.1618C63.1281 58.1618 62.7977 58.032 62.5557 57.7723C62.3137 57.5126 62.1881 57.1323 62.1741 56.6407L62.1648 56.2604L62.1741 55.8755Z" fill="#636569"/>
<path d="M73.8732 53.5984H73.4172C73.338 53.5984 73.2729 53.6216 73.2217 53.668C73.1705 53.7143 73.1426 53.7561 73.1333 53.7978L72.049 57.4662L70.8855 53.8395C70.8716 53.7793 70.8343 53.7236 70.7831 53.6726C70.7273 53.6216 70.6528 53.5938 70.5644 53.5938H70.22C70.127 53.5938 70.0525 53.6216 70.0013 53.6726C69.9501 53.7236 69.9129 53.7793 69.8989 53.8349L68.7355 57.4662L67.6512 53.7932C67.6326 53.7468 67.6 53.7004 67.5534 53.6587C67.5023 53.6169 67.4371 53.5938 67.358 53.5938H66.9112C66.8461 53.5938 66.7902 53.6169 66.7344 53.6633C66.6832 53.7097 66.6553 53.7746 66.6553 53.8535L66.6785 53.9601L68.1165 58.6395C68.1538 58.7323 68.1957 58.8019 68.2515 58.8482C68.3074 58.8946 68.3818 58.9178 68.4795 58.9178H68.8751C69.0706 58.9178 69.1962 58.8251 69.2567 58.6395L70.3922 55.152L71.5231 58.6349C71.5696 58.8204 71.6953 58.9178 71.8954 58.9178H72.291C72.3933 58.9178 72.4771 58.8946 72.5329 58.8482C72.5841 58.8019 72.6307 58.7323 72.6679 58.6395L74.0966 53.9601L74.1152 53.8535C74.1152 53.7839 74.092 53.719 74.0408 53.6726C73.9989 53.6216 73.9384 53.5984 73.8732 53.5984Z" fill="#636569"/>
<path d="M77.1913 53.4966C76.5026 53.4966 75.9395 53.7192 75.5206 54.1551C75.1018 54.5911 74.8644 55.1801 74.8179 55.9175L74.8086 56.2514L74.8179 56.5946C74.8598 57.3412 75.0925 57.9395 75.5113 58.3708C75.9348 58.8021 76.5025 59.0247 77.2053 59.0247C77.6427 59.0247 78.0336 58.9459 78.3687 58.7928C78.7038 58.6398 78.9737 58.4543 79.1598 58.2456C79.3553 58.0276 79.4484 57.8421 79.4484 57.6844C79.4484 57.6102 79.4251 57.5546 79.3739 57.5128C79.3274 57.4711 79.2669 57.4525 79.1971 57.4525H78.7038C78.6153 57.4525 78.5548 57.4618 78.5176 57.485C78.4944 57.4989 78.4571 57.5267 78.3687 57.6427C78.2756 57.7725 78.136 57.8977 77.9406 58.0183C77.7498 58.1389 77.4985 58.1992 77.2006 58.1992C76.8097 58.1992 76.4932 58.0508 76.2559 57.754C76.0186 57.4572 75.8836 57.0908 75.865 56.6641V56.6131H79.3227C79.4018 56.6131 79.467 56.5853 79.5182 56.5343C79.5694 56.4832 79.5973 56.4183 79.5973 56.3395V56.1679C79.5973 55.3563 79.3879 54.7024 78.969 54.2201C78.5455 53.7424 77.9499 53.4966 77.1913 53.4966ZM76.214 54.7395C76.4514 54.4566 76.7771 54.3174 77.1867 54.3174C77.5962 54.3174 77.9266 54.4612 78.1732 54.7395C78.4152 55.0177 78.5409 55.3888 78.5409 55.834H75.8557C75.8603 55.3888 75.9813 55.0177 76.214 54.7395Z" fill="#636569"/>
<path d="M83.4089 53.5986H83.0134C82.3898 53.5986 81.9291 53.7981 81.6405 54.1876V53.8815C81.6405 53.8027 81.6126 53.7378 81.5568 53.6821C81.5009 53.6265 81.4358 53.5986 81.3566 53.5986H80.8913C80.8122 53.5986 80.747 53.6265 80.6958 53.6821C80.6446 53.7378 80.6167 53.8027 80.6167 53.8815V58.6491C80.6167 58.7279 80.6446 58.7928 80.6958 58.8438C80.747 58.8949 80.8122 58.9227 80.8913 58.9227H81.3892C81.4683 58.9227 81.5335 58.8949 81.5893 58.8438C81.6452 58.7928 81.6731 58.7279 81.6731 58.6491V55.6856C81.6731 55.3378 81.7755 55.0549 81.9756 54.8508C82.1757 54.6467 82.4549 54.5447 82.804 54.5447H83.4089C83.4881 54.5447 83.5532 54.5215 83.6044 54.4752C83.6556 54.4288 83.6835 54.3638 83.6835 54.285V53.8723C83.6835 53.7934 83.6556 53.7285 83.6044 53.6775C83.5532 53.6218 83.4881 53.5986 83.4089 53.5986Z" fill="#636569"/>
<path d="M86.4945 53.4966C85.8058 53.4966 85.2427 53.7192 84.8238 54.1551C84.405 54.5911 84.1677 55.1801 84.1211 55.9175L84.1118 56.2514L84.1211 56.5946C84.163 57.3412 84.3957 57.9395 84.8145 58.3708C85.238 58.8021 85.8058 59.0247 86.5085 59.0247C86.9459 59.0247 87.3369 58.9459 87.6719 58.7928C88.007 58.6398 88.2769 58.4543 88.4631 58.2456C88.6585 58.0276 88.7516 57.8421 88.7516 57.6844C88.7516 57.6102 88.7283 57.5546 88.6771 57.5128C88.6306 57.4711 88.5701 57.4525 88.5003 57.4525H88.007C87.9186 57.4525 87.8581 57.4618 87.8208 57.485C87.7976 57.4989 87.7603 57.5267 87.6719 57.6427C87.5789 57.7725 87.4392 57.8977 87.2438 58.0183C87.053 58.1389 86.8017 58.1992 86.5038 58.1992C86.1129 58.1992 85.7965 58.0508 85.5591 57.754C85.3218 57.4572 85.1868 57.0908 85.1682 56.6641V56.6131H88.6259C88.7051 56.6131 88.7702 56.5853 88.8214 56.5343C88.8726 56.4832 88.9005 56.4183 88.9005 56.3395V56.1679C88.9005 55.3563 88.6911 54.7024 88.2723 54.2201C87.8488 53.7424 87.2531 53.4966 86.4945 53.4966ZM85.5219 54.7395C85.7592 54.4566 86.085 54.3174 86.4945 54.3174C86.9041 54.3174 87.2345 54.4612 87.4811 54.7395C87.7231 55.0177 87.8488 55.3888 87.8488 55.834H85.1636C85.1636 55.3888 85.2846 55.0177 85.5219 54.7395Z" fill="#636569"/>
<path d="M94.2384 51.6831H93.7544C93.6753 51.6831 93.6101 51.7109 93.559 51.7619C93.5078 51.813 93.4798 51.8779 93.4798 51.9567V54.1596C93.0796 53.719 92.5444 53.4964 91.8836 53.4964C91.1716 53.4964 90.6271 53.733 90.2641 54.2014C89.9011 54.6651 89.7103 55.2541 89.687 55.9544L89.6777 56.2605L89.687 56.5619C89.7057 57.2669 89.9011 57.8559 90.2641 58.3196C90.6271 58.7834 91.1716 59.0199 91.8836 59.0199C92.5724 59.0199 93.1169 58.7927 93.5124 58.3382V58.6443C93.5124 58.7231 93.5403 58.788 93.5915 58.839C93.6427 58.8901 93.7079 58.9179 93.787 58.9179H94.2431C94.3222 58.9179 94.3873 58.8901 94.4385 58.839C94.4897 58.788 94.5176 58.7231 94.5176 58.6443V51.9521C94.5176 51.8733 94.4897 51.8083 94.4385 51.7573C94.3827 51.7063 94.3175 51.6831 94.2384 51.6831ZM92.0977 58.1202C91.1716 58.1202 90.7248 57.5127 90.7248 56.2605L90.7341 55.9683C90.7528 55.4953 90.8737 55.1104 91.0832 54.8228C91.2926 54.5399 91.6323 54.3962 92.0977 54.3962C92.5351 54.3962 92.8749 54.5399 93.1075 54.8228C93.3449 55.1104 93.4705 55.4489 93.4845 55.8385C93.4892 55.9127 93.4938 56.0472 93.4938 56.228C93.4938 56.3996 93.4892 56.5341 93.4845 56.6083C93.4659 57.0211 93.3402 57.3828 93.1122 57.6796C92.8842 57.9718 92.5444 58.1202 92.0977 58.1202Z" fill="#636569"/>
<path d="M102.471 54.2014C102.108 53.733 101.563 53.4964 100.851 53.4964C100.19 53.4964 99.6506 53.719 99.255 54.1596V51.9567C99.255 51.8779 99.2318 51.813 99.1852 51.7619C99.1387 51.7109 99.0735 51.6831 98.9944 51.6831H98.5011C98.422 51.6831 98.3569 51.7109 98.3057 51.7619C98.2545 51.813 98.2266 51.8779 98.2266 51.9567V58.6489C98.2266 58.7277 98.2545 58.7927 98.3057 58.8437C98.3569 58.8947 98.422 58.9225 98.5011 58.9225H98.9665C99.0456 58.9225 99.1108 58.8947 99.162 58.8437C99.2132 58.7927 99.2411 58.7277 99.2411 58.6489V58.3428C99.6227 58.7927 100.167 59.0199 100.856 59.0199C101.568 59.0199 102.112 58.7834 102.475 58.3196C102.838 57.8559 103.034 57.2669 103.062 56.5666C103.071 56.4924 103.071 56.3857 103.071 56.2605C103.071 56.1353 103.066 56.0333 103.062 55.9544C103.029 55.2588 102.834 54.6698 102.471 54.2014ZM100.642 54.3962C101.568 54.3962 102.015 55.0037 102.015 56.2605C102.015 56.3857 102.01 56.4831 102.005 56.5527C101.987 57.0257 101.866 57.4106 101.656 57.6982C101.447 57.9811 101.107 58.1248 100.642 58.1248C100.19 58.1248 99.8507 57.9764 99.6273 57.6843C99.3993 57.3875 99.2783 57.0257 99.255 56.613L99.2457 56.2327L99.255 55.8385C99.269 55.4535 99.3946 55.1104 99.632 54.8275C99.8647 54.5399 100.204 54.3962 100.642 54.3962Z" fill="#636569"/>
<path d="M108.707 53.6682C108.66 53.6218 108.595 53.594 108.525 53.594H108.05C107.92 53.594 107.822 53.6589 107.757 53.7888L106.217 57.3644L104.718 53.7841C104.658 53.6543 104.565 53.5894 104.439 53.5894H103.946C103.876 53.5894 103.811 53.6125 103.764 53.6636C103.718 53.7099 103.69 53.7702 103.69 53.8444C103.69 53.863 103.695 53.9047 103.746 54.0299L105.672 58.5563L104.9 60.3836C104.863 60.4624 104.844 60.5273 104.844 60.583C104.844 60.6479 104.867 60.7036 104.919 60.7546C104.965 60.8009 105.026 60.8288 105.091 60.8288H105.565C105.696 60.8288 105.793 60.7639 105.854 60.634L108.725 54.0299C108.772 53.8908 108.776 53.8537 108.776 53.8352C108.781 53.7749 108.758 53.7192 108.707 53.6682Z" fill="#636569"/>
<path d="M129.351 1.11859V6.52149H128.229C120.597 6.52149 112.904 11.9847 112.904 24.2374V40.1447H107.846V1.68903H112.904V9.90236C116.478 4.22584 122.412 0.905259 128.62 1.08613L129.351 1.11859Z" fill="#636569"/>
<path d="M150.213 0.82666C139.924 0.82666 131.877 9.61043 131.877 20.8336V20.982C131.877 32.3814 140.012 40.989 150.804 40.989C158.972 40.989 163.569 37.1675 166.697 33.8191L167.227 33.2301L163.63 30.058L163.099 30.6145C159.563 34.4035 155.7 36.1658 150.925 36.1658C143.675 36.1658 138.132 30.8464 137.248 23.12H167.851L167.939 22.4429C168 21.8261 168 21.5896 168 20.9171C167.99 9.08173 160.679 0.82666 150.213 0.82666ZM137.239 18.4267C138.183 10.9368 143.461 5.58956 150.092 5.58956C158.287 5.58956 161.885 12.3188 162.564 18.4267H137.239Z" fill="#636569"/>
<path d="M56.4359 16.9563V40.1493H51.368V17.3783C51.368 9.85133 47.6357 5.52437 41.1111 5.52437C35.8338 5.52437 30.1562 9.36437 30.1562 17.8328V40.1447H25.065V17.1649C25.065 10.4218 21.6678 6.09944 16.1438 5.58466C15.8739 5.52437 15.5993 5.52437 15.3248 5.52437H14.9897C8.67922 5.67278 5.06792 9.97191 5.06792 17.3783V40.1447H0V16.9563C0 7.09654 5.88698 0.747559 15.0223 0.747559C15.1712 0.747559 15.3248 0.747559 15.4783 0.780022C18.7871 0.840312 21.6725 1.74466 24.125 3.50234C24.4926 3.7435 24.823 4.01249 25.1581 4.31857C26.4658 5.50118 27.4059 6.79973 28.0714 7.94988C28.1319 7.88959 28.1644 7.79683 28.2249 7.73654C31.4034 3.1035 35.8384 0.747559 41.4183 0.747559C50.5536 0.747559 56.4359 7.09654 56.4359 16.9563Z" fill="#636569"/>
<path d="M81.7383 41.5082C93.227 41.5082 102.54 32.2269 102.54 20.7778C102.54 9.3287 93.227 0.0473633 81.7383 0.0473633C70.2495 0.0473633 60.936 9.3287 60.936 20.7778C60.936 32.2269 70.2495 41.5082 81.7383 41.5082Z" fill="#FF7F30"/>
<path d="M83.0368 9.3415L85.3218 13.956C85.8291 14.9763 86.8064 15.6859 87.9326 15.8482L93.0424 16.5902C94.2291 16.7618 94.6991 18.2134 93.8428 19.0435L90.1477 22.6331C89.3287 23.4261 88.9564 24.5716 89.1518 25.694L90.0267 30.763C90.2269 31.9409 88.989 32.836 87.9326 32.2795L83.3626 29.8864C82.3527 29.3577 81.1428 29.3577 80.1329 29.8864L75.5629 32.2795C74.5019 32.836 73.264 31.9363 73.4687 30.763L74.3436 25.694C74.5344 24.5716 74.1621 23.4261 73.3477 22.6331L69.6527 19.0435C68.7964 18.2087 69.2664 16.7618 70.4531 16.5902L75.5629 15.8482C76.6938 15.6859 77.6711 14.9763 78.1737 13.956L80.4587 9.3415C80.9752 8.27484 82.5063 8.27484 83.0368 9.3415Z" fill="white"/>
</svg>
