<svg width="158" height="136" viewBox="0 0 158 136" fill="none" xmlns="http://www.w3.org/2000/svg">
<g filter="url(#filter0_dd)">
<g clip-path="url(#clip0)">
<rect x="4" y="2" width="150" height="28.8462" fill="#FF7F32"/>
<g clip-path="url(#clip1)">
<path d="M65.2971 7.9885V10.3066H64.8156C61.5393 10.3066 58.237 12.6505 58.237 17.9075V24.7323H56.0654V8.23324H58.237V11.7571C59.7713 9.32164 62.3184 7.89697 64.9835 7.97457L65.2971 7.9885Z" fill="white"/>
<path d="M74.253 7.86316C69.836 7.86316 66.3818 11.6318 66.3818 16.447V16.5107C66.3818 21.4015 69.8739 25.0945 74.5067 25.0945C78.0128 25.0945 79.9866 23.4549 81.3291 22.0183L81.5569 21.7656L80.0126 20.4046L79.7848 20.6434C78.2665 22.269 76.6084 23.0251 74.5587 23.0251C71.4462 23.0251 69.0668 20.7429 68.6873 17.4279H81.8246L81.8625 17.1374C81.8885 16.8728 81.8885 16.7713 81.8885 16.4828C81.8845 11.4049 78.746 7.86316 74.253 7.86316ZM68.6833 15.4123C69.0888 12.1988 71.3543 9.90465 74.2011 9.90465C77.7192 9.90465 79.2634 12.7918 79.5551 15.4123H68.6833Z" fill="white"/>
<path d="M33.9964 14.7816V24.7324H31.8209V14.9646C31.8209 11.7352 30.2187 9.8788 27.4178 9.8788C25.1523 9.8788 22.7151 11.5263 22.7151 15.1596V24.7324H20.5295V14.8731C20.5295 11.98 19.0711 10.1255 16.6998 9.90467C16.5839 9.8788 16.466 9.8788 16.3482 9.8788H16.2043C13.4954 9.94247 11.9451 11.787 11.9451 14.9646V24.7324H9.76953V14.7816C9.76953 10.5533 12.2967 7.82935 16.2183 7.82935C16.2822 7.82935 16.3482 7.82935 16.4141 7.84327C17.8345 7.86914 19.0731 8.25714 20.126 9.01126C20.2838 9.11473 20.4256 9.23014 20.5695 9.36146C21.1308 9.86885 21.5344 10.426 21.8201 10.9194C21.846 10.8936 21.86 10.8538 21.886 10.8279C23.2505 8.84014 25.1543 7.82935 27.5497 7.82935C31.4713 7.82935 33.9964 10.5533 33.9964 14.7816Z" fill="white"/>
<path d="M44.8597 7.52881C39.9272 7.52881 35.9297 11.5103 35.9297 16.423C35.9297 21.3338 39.9272 25.3173 44.8597 25.3173C49.7902 25.3173 53.7897 21.3338 53.7897 16.423C53.7897 11.5103 49.7902 7.52881 44.8597 7.52881ZM50.0539 15.6789L48.4677 17.2189C48.1161 17.5592 47.9562 18.0507 48.0401 18.5322L48.4137 20.709C48.5016 21.2124 47.9682 21.5984 47.5147 21.3596L45.5529 20.3329C45.1194 20.1041 44.6 20.1041 44.1665 20.3329L42.2047 21.3596C41.7492 21.5984 41.2178 21.2124 41.3037 20.709L41.6793 18.5322C41.7612 18.0507 41.6013 17.5592 41.2497 17.2189L39.6635 15.6789C39.2959 15.3207 39.4977 14.6979 40.0071 14.6243L42.2007 14.3079C42.6861 14.2363 43.1057 13.9338 43.3214 13.4961L44.3023 11.5163C44.5301 11.0567 45.1873 11.0567 45.4151 11.5163L46.396 13.4961C46.6137 13.9338 47.0333 14.2363 47.5187 14.3079L49.7103 14.6243C50.2197 14.6979 50.4235 15.3207 50.0539 15.6789Z" fill="white"/>
</g>
<rect x="4" y="30.8462" width="150" height="58.6538" fill="#FF7F32"/>
<path opacity="0.83" d="M117.9 83.9711C130.849 83.9711 141.346 73.5362 141.346 60.664C141.346 47.7918 130.849 37.3568 117.9 37.3568C104.95 37.3568 94.4531 47.7918 94.4531 60.664C94.4531 73.5362 104.95 83.9711 117.9 83.9711Z" fill="white"/>
<path opacity="0.79" d="M112.199 83.9711C125.149 83.9711 135.646 73.5362 135.646 60.664C135.646 47.7918 125.149 37.3568 112.199 37.3568C99.2503 37.3568 88.7529 47.7918 88.7529 60.664C88.7529 73.5362 99.2503 83.9711 112.199 83.9711Z" fill="white"/>
<path opacity="0.75" d="M106.499 83.9711C119.448 83.9711 129.946 73.5362 129.946 60.664C129.946 47.7918 119.448 37.3568 106.499 37.3568C93.5501 37.3568 83.0527 47.7918 83.0527 60.664C83.0527 73.5362 93.5501 83.9711 106.499 83.9711Z" fill="white"/>
<path opacity="0.69" d="M100.798 83.9711C113.747 83.9711 124.245 73.5362 124.245 60.664C124.245 47.7918 113.747 37.3568 100.798 37.3568C87.8489 37.3568 77.3516 47.7918 77.3516 60.664C77.3516 73.5362 87.8489 83.9711 100.798 83.9711Z" fill="white"/>
<path opacity="0.65" d="M95.0978 83.9711C108.047 83.9711 118.544 73.5362 118.544 60.664C118.544 47.7918 108.047 37.3568 95.0978 37.3568C82.1487 37.3568 71.6514 47.7918 71.6514 60.664C71.6514 73.5362 82.1487 83.9711 95.0978 83.9711Z" fill="white"/>
<path opacity="0.64" d="M89.3967 83.9711C102.346 83.9711 112.843 73.5362 112.843 60.664C112.843 47.7918 102.346 37.3568 89.3967 37.3568C76.4475 37.3568 65.9502 47.7918 65.9502 60.664C65.9502 73.5362 76.4475 83.9711 89.3967 83.9711Z" fill="white"/>
<path opacity="0.52" d="M83.6965 83.9711C96.6456 83.9711 107.143 73.5362 107.143 60.664C107.143 47.7918 96.6456 37.3568 83.6965 37.3568C70.7473 37.3568 60.25 47.7918 60.25 60.664C60.25 73.5362 70.7473 83.9711 83.6965 83.9711Z" fill="white"/>
<path opacity="0.52" d="M77.9963 83.9711C90.9454 83.9711 101.443 73.5362 101.443 60.664C101.443 47.7918 90.9454 37.3568 77.9963 37.3568C65.0471 37.3568 54.5498 47.7918 54.5498 60.664C54.5498 73.5362 65.0471 83.9711 77.9963 83.9711Z" fill="white"/>
<path opacity="0.5" d="M72.2951 83.9711C85.2442 83.9711 95.7416 73.5362 95.7416 60.664C95.7416 47.7918 85.2442 37.3568 72.2951 37.3568C59.346 37.3568 48.8486 47.7918 48.8486 60.664C48.8486 73.5362 59.346 83.9711 72.2951 83.9711Z" fill="white"/>
<path opacity="0.49" d="M66.5949 83.9711C79.544 83.9711 90.0414 73.5362 90.0414 60.664C90.0414 47.7918 79.544 37.3568 66.5949 37.3568C53.6458 37.3568 43.1484 47.7918 43.1484 60.664C43.1484 73.5362 53.6458 83.9711 66.5949 83.9711Z" fill="white"/>
<path opacity="0.44" d="M60.8937 83.9711C73.8429 83.9711 84.3402 73.5362 84.3402 60.664C84.3402 47.7918 73.8429 37.3568 60.8937 37.3568C47.9446 37.3568 37.4473 47.7918 37.4473 60.664C37.4473 73.5362 47.9446 83.9711 60.8937 83.9711Z" fill="white"/>
<path opacity="0.4" d="M55.1935 83.9711C68.1427 83.9711 78.64 73.5362 78.64 60.664C78.64 47.7918 68.1427 37.3568 55.1935 37.3568C42.2444 37.3568 31.7471 47.7918 31.7471 60.664C31.7471 73.5362 42.2444 83.9711 55.1935 83.9711Z" fill="white"/>
<path opacity="0.29" d="M49.4934 83.9711C62.4425 83.9711 72.9398 73.5362 72.9398 60.664C72.9398 47.7918 62.4425 37.3568 49.4934 37.3568C36.5442 37.3568 26.0469 47.7918 26.0469 60.664C26.0469 73.5362 36.5442 83.9711 49.4934 83.9711Z" fill="white"/>
<path opacity="0.27" d="M43.7922 83.9711C56.7413 83.9711 67.2387 73.5362 67.2387 60.664C67.2387 47.7918 56.7413 37.3568 43.7922 37.3568C30.843 37.3568 20.3457 47.7918 20.3457 60.664C20.3457 73.5362 30.843 83.9711 43.7922 83.9711Z" fill="white"/>
<path opacity="0.25" d="M38.092 83.9711C51.0411 83.9711 61.5385 73.5362 61.5385 60.664C61.5385 47.7918 51.0411 37.3568 38.092 37.3568C25.1429 37.3568 14.6455 47.7918 14.6455 60.664C14.6455 73.5362 25.1429 83.9711 38.092 83.9711Z" fill="white"/>
<path opacity="0.25" d="M32.3918 83.9711C45.3409 83.9711 55.8383 73.5362 55.8383 60.664C55.8383 47.7918 45.3409 37.3568 32.3918 37.3568C19.4427 37.3568 8.94531 47.7918 8.94531 60.664C8.94531 73.5362 19.4427 83.9711 32.3918 83.9711Z" fill="white"/>
<path opacity="0.22" d="M26.6906 83.9711C39.6398 83.9711 50.1371 73.5362 50.1371 60.664C50.1371 47.7918 39.6398 37.3568 26.6906 37.3568C13.7415 37.3568 3.24414 47.7918 3.24414 60.664C3.24414 73.5362 13.7415 83.9711 26.6906 83.9711Z" fill="white"/>
<path opacity="0.14" d="M20.9904 83.9711C33.9396 83.9711 44.4369 73.5362 44.4369 60.664C44.4369 47.7918 33.9396 37.3568 20.9904 37.3568C8.04129 37.3568 -2.45605 47.7918 -2.45605 60.664C-2.45605 73.5362 8.04129 83.9711 20.9904 83.9711Z" fill="white"/>
<path opacity="0.06" d="M15.2902 83.9711C28.2394 83.9711 38.7367 73.5362 38.7367 60.664C38.7367 47.7918 28.2394 37.3568 15.2902 37.3568C2.34109 37.3568 -8.15625 47.7918 -8.15625 60.664C-8.15625 73.5362 2.34109 83.9711 15.2902 83.9711Z" fill="white"/>
<path opacity="0.03" d="M9.58906 83.9711C22.5382 83.9711 33.0355 73.5362 33.0355 60.664C33.0355 47.7918 22.5382 37.3568 9.58906 37.3568C-3.36008 37.3568 -13.8574 47.7918 -13.8574 60.664C-13.8574 73.5362 -3.36008 83.9711 9.58906 83.9711Z" fill="white"/>
<path opacity="0.95" fill-rule="evenodd" clip-rule="evenodd" d="M147.047 60.664C147.047 73.5362 136.55 83.9711 123.601 83.9711C110.652 83.9711 100.154 73.5362 100.154 60.664C100.154 47.7918 110.652 37.3568 123.601 37.3568C136.55 37.3568 147.047 47.7918 147.047 60.664ZM127.64 52.994L125.064 47.806C124.466 46.6067 122.741 46.6067 122.158 47.806L119.583 52.994C119.016 54.1411 117.915 54.9389 116.64 55.1214L110.881 55.9557C109.543 56.1486 109.014 57.7754 109.979 58.7139L114.144 62.7497C115.062 63.6413 115.481 64.9292 115.266 66.191L114.28 71.89C114.049 73.2092 115.444 74.2208 116.64 73.5951L121.791 70.9046C122.929 70.3102 124.293 70.3102 125.431 70.9046L130.582 73.5951C131.773 74.2208 133.168 73.2144 132.943 71.89L131.957 66.191C131.736 64.9292 132.156 63.6413 133.079 62.7497L137.244 58.7139C138.209 57.7806 137.679 56.1486 136.342 55.9557L130.582 55.1214C129.313 54.9389 128.211 54.1411 127.64 52.994Z" fill="white"/>
<path opacity="0.95" d="M125.064 47.806L127.64 52.994C128.211 54.1411 129.313 54.9389 130.582 55.1214L136.342 55.9557C137.679 56.1486 138.209 57.7806 137.244 58.7139L133.079 62.7497C132.156 63.6413 131.736 64.9292 131.957 66.191L132.943 71.89C133.168 73.2144 131.773 74.2208 130.582 73.5951L125.431 70.9046C124.293 70.3102 122.929 70.3102 121.791 70.9046L116.64 73.5951C115.444 74.2208 114.049 73.2092 114.28 71.89L115.266 66.191C115.481 64.9292 115.062 63.6413 114.144 62.7497L109.979 58.7139C109.014 57.7754 109.543 56.1486 110.881 55.9557L116.64 55.1214C117.915 54.9389 119.016 54.1411 119.583 52.994L122.158 47.806C122.741 46.6067 124.466 46.6067 125.064 47.806Z" fill="#FF7F32"/>
<rect x="4" y="89.5" width="150" height="103.846" fill="#FF7F32"/>
<path d="M9.56979 100.029H10.2013V97.7376H10.22L11.1356 100.029H11.5816L12.4948 97.7376H12.5159V100.029H13.1474V96.6414H12.3281L11.3656 99.0757H11.3515L10.3891 96.6414H9.56979V100.029ZM14.7977 100.08C15.516 100.08 15.8634 99.6556 15.9409 99.2846L15.948 99.2588H15.3188L15.3141 99.2729C15.2648 99.4138 15.0935 99.5687 14.8118 99.5687C14.462 99.5687 14.2437 99.3339 14.2366 98.9325H15.9691V98.7212C15.9691 97.9607 15.5066 97.4606 14.7695 97.4606C14.0324 97.4606 13.5605 97.9724 13.5605 98.7729V98.7752C13.5605 99.5804 14.0277 100.08 14.7977 100.08ZM14.7812 97.9724C15.0653 97.9724 15.2695 98.1532 15.3118 98.5006H14.2437C14.2883 98.1602 14.4995 97.9724 14.7812 97.9724ZM16.3236 100.029H17.009V98.51C17.009 98.2259 17.1851 98.0287 17.4457 98.0287C17.6992 98.0287 17.8518 98.1884 17.8518 98.4583V100.029H18.5114V98.4982C18.5114 98.2189 18.6828 98.0287 18.9434 98.0287C19.2086 98.0287 19.3542 98.1884 19.3542 98.4795V100.029H20.0397V98.3081C20.0397 97.801 19.7087 97.4606 19.2157 97.4606C18.8471 97.4606 18.5466 97.6625 18.434 97.9794H18.4199C18.3354 97.6484 18.0795 97.4606 17.7274 97.4606C17.3893 97.4606 17.1264 97.6484 17.0231 97.9348H17.009V97.5123H16.3236V100.029ZM21.9646 100.08C22.5984 100.08 22.9905 99.5875 22.9905 98.7705V98.7682C22.9905 97.9489 22.5984 97.4606 21.967 97.4606C21.6078 97.4606 21.3284 97.6437 21.1899 97.9489H21.1759V96.6414H20.4904V100.029H21.1759V99.5992H21.1899C21.3261 99.8973 21.6031 100.08 21.9646 100.08ZM21.7369 99.5124C21.4036 99.5124 21.1759 99.226 21.1759 98.7705V98.7682C21.1759 98.3151 21.4059 98.0287 21.7369 98.0287C22.0773 98.0287 22.2933 98.3081 22.2933 98.7682V98.7705C22.2933 99.2283 22.0773 99.5124 21.7369 99.5124ZM24.4882 100.08C25.2065 100.08 25.554 99.6556 25.6314 99.2846L25.6385 99.2588H25.0093L25.0046 99.2729C24.9553 99.4138 24.784 99.5687 24.5023 99.5687C24.1525 99.5687 23.9342 99.3339 23.9271 98.9325H25.6596V98.7212C25.6596 97.9607 25.1971 97.4606 24.46 97.4606C23.7229 97.4606 23.2511 97.9724 23.2511 98.7729V98.7752C23.2511 99.5804 23.7182 100.08 24.4882 100.08ZM24.4718 97.9724C24.7558 97.9724 24.96 98.1532 25.0023 98.5006H23.9342C23.9788 98.1602 24.1901 97.9724 24.4718 97.9724ZM26.0141 100.029H26.6995V98.6109C26.6995 98.2564 26.8967 98.0522 27.2348 98.0522C27.3334 98.0522 27.4273 98.0663 27.4836 98.0898V97.4865C27.432 97.4724 27.3615 97.4606 27.2864 97.4606C26.9883 97.4606 26.7747 97.6367 26.7019 97.9419H26.6878V97.5123H26.0141V100.029Z" fill="white"/>
<path d="M11.8178 112.164C13.322 112.164 14.2122 111.251 14.2122 109.713V103.899H13.1981V109.702C13.1981 110.694 12.7136 111.229 11.8121 111.229C11.0065 111.229 10.6064 110.716 10.5445 110.102L10.5388 110.046H9.52471L9.53035 110.125C9.61486 111.291 10.4093 112.164 11.8178 112.164ZM18.0659 112.141C19.6828 112.141 20.7758 110.97 20.7758 109.099V109.088C20.7758 107.217 19.6772 106.057 18.0602 106.057C16.4433 106.057 15.3503 107.223 15.3503 109.088V109.099C15.3503 110.964 16.4377 112.141 18.0659 112.141ZM18.0715 111.274C17.0349 111.274 16.3531 110.479 16.3531 109.099V109.088C16.3531 107.719 17.0405 106.924 18.0602 106.924C19.0969 106.924 19.773 107.713 19.773 109.088V109.099C19.773 110.474 19.1025 111.274 18.0715 111.274ZM21.8181 112.029H22.7985V108.609C22.7985 107.612 23.4013 106.924 24.3084 106.924C25.2211 106.924 25.7619 107.55 25.7619 108.609V112.029H26.7423V108.44C26.7423 107.02 25.8915 106.057 24.6464 106.057C23.7731 106.057 23.1365 106.446 22.821 107.105H22.7985V103.899H21.8181V112.029ZM27.9874 112.029H28.9677V108.581C28.9677 107.584 29.5705 106.924 30.4945 106.924C31.396 106.924 31.841 107.448 31.841 108.401V112.029H32.8214V108.226C32.8214 106.891 32.0777 106.057 30.7931 106.057C29.9029 106.057 29.3057 106.457 28.9902 107.003H28.9677V106.169H27.9874V112.029ZM35.9426 112.029H37.0074L37.8244 109.702H41.0583L41.8752 112.029H42.9401L39.9428 103.899H38.9399L35.9426 112.029ZM39.4301 105.116H39.4526L40.7597 108.84H38.123L39.4301 105.116ZM43.7175 114.001H44.6979V111.048H44.7204C45.0866 111.725 45.7683 112.141 46.5965 112.141C48.067 112.141 49.0699 110.953 49.0699 109.105V109.099C49.0699 107.251 48.0783 106.057 46.5796 106.057C45.7402 106.057 45.0866 106.479 44.7204 107.161H44.6979V106.169H43.7175V114.001ZM46.3881 111.274C45.4021 111.274 44.6922 110.412 44.6922 109.105V109.099C44.6922 107.786 45.3965 106.924 46.3881 106.924C47.4247 106.924 48.067 107.753 48.067 109.099V109.105C48.067 110.44 47.4247 111.274 46.3881 111.274ZM50.0614 114.001H51.0418V111.048H51.0643C51.4305 111.725 52.1122 112.141 52.9404 112.141C54.4109 112.141 55.4138 110.953 55.4138 109.105V109.099C55.4138 107.251 54.4222 106.057 52.9235 106.057C52.0841 106.057 51.4305 106.479 51.0643 107.161H51.0418V106.169H50.0614V114.001ZM52.732 111.274C51.746 111.274 51.0361 110.412 51.0361 109.105V109.099C51.0361 107.786 51.7404 106.924 52.732 106.924C53.7686 106.924 54.4109 107.753 54.4109 109.099V109.105C54.4109 110.44 53.7686 111.274 52.732 111.274ZM56.4561 112.029H57.4364V103.899H56.4561V112.029ZM61.1717 112.141C62.4506 112.141 63.4084 111.375 63.6 110.406L63.6113 110.35H62.6478L62.6309 110.401C62.4619 110.902 61.9379 111.274 61.1943 111.274C60.152 111.274 59.4872 110.57 59.4646 109.364H63.6845V109.003C63.6845 107.246 62.7098 106.057 61.1097 106.057C59.5097 106.057 58.473 107.302 58.473 109.116V109.122C58.473 110.964 59.4872 112.141 61.1717 112.141ZM61.1041 106.924C61.9605 106.924 62.5915 107.46 62.6873 108.598H59.4815C59.5886 107.505 60.2534 106.924 61.1041 106.924ZM66.755 112.141C68.0621 112.141 69.0312 111.42 69.0312 110.395V110.389C69.0312 109.555 68.603 109.088 67.4198 108.801L66.4902 108.575C65.8423 108.417 65.5775 108.141 65.5775 107.741V107.736C65.5775 107.217 66.017 106.874 66.7269 106.874C67.4537 106.874 67.8875 107.251 67.9663 107.82L67.972 107.86H68.9072L68.9016 107.786C68.8284 106.806 68.0114 106.057 66.7269 106.057C65.4592 106.057 64.5747 106.772 64.5747 107.781V107.786C64.5747 108.631 65.1099 109.144 66.2142 109.409L67.1438 109.634C67.8086 109.798 68.0283 110.034 68.0283 110.457V110.463C68.0283 110.992 67.5551 111.325 66.7607 111.325C65.9606 111.325 65.5268 110.981 65.4085 110.395L65.3972 110.339H64.4169L64.4226 110.389C64.5409 111.437 65.3747 112.141 66.755 112.141ZM72.4623 112.141C73.7412 112.141 74.699 111.375 74.8905 110.406L74.9018 110.35H73.9384L73.9215 110.401C73.7525 110.902 73.2285 111.274 72.4848 111.274C71.4425 111.274 70.7777 110.57 70.7552 109.364H74.9751V109.003C74.9751 107.246 74.0004 106.057 72.4003 106.057C70.8003 106.057 69.7636 107.302 69.7636 109.116V109.122C69.7636 110.964 70.7777 112.141 72.4623 112.141ZM72.3947 106.924C73.2511 106.924 73.8821 107.46 73.9778 108.598H70.7721C70.8791 107.505 71.5439 106.924 72.3947 106.924ZM78.378 112.141C79.6569 112.141 80.6147 111.375 80.8063 110.406L80.8175 110.35H79.8541L79.8372 110.401C79.6682 110.902 79.1442 111.274 78.4005 111.274C77.3582 111.274 76.6934 110.57 76.6709 109.364H80.8908V109.003C80.8908 107.246 79.9161 106.057 78.316 106.057C76.716 106.057 75.6793 107.302 75.6793 109.116V109.122C75.6793 110.964 76.6934 112.141 78.378 112.141ZM78.3104 106.924C79.1668 106.924 79.7978 107.46 79.8936 108.598H76.6878C76.7948 107.505 77.4597 106.924 78.3104 106.924ZM84.0853 112.141C84.9247 112.141 85.5783 111.719 85.9445 111.037H85.967V112.029H86.9473V103.899H85.967V107.15H85.9445C85.5783 106.474 84.8966 106.057 84.0684 106.057C82.5979 106.057 81.595 107.246 81.595 109.093V109.099C81.595 110.947 82.5866 112.141 84.0853 112.141ZM84.2768 111.274C83.2402 111.274 82.5979 110.446 82.5979 109.099V109.093C82.5979 107.758 83.2402 106.924 84.2768 106.924C85.2628 106.924 85.9727 107.786 85.9727 109.093V109.099C85.9727 110.412 85.2684 111.274 84.2768 111.274Z" fill="white"/>
</g>
</g>
<defs>
<filter id="filter0_dd" x="0" y="0" width="158" height="135.404" filterUnits="userSpaceOnUse" color-interpolation-filters="sRGB">
<feFlood flood-opacity="0" result="BackgroundImageFix"/>
<feColorMatrix in="SourceAlpha" type="matrix" values="0 0 0 0 0 0 0 0 0 0 0 0 0 0 0 0 0 0 127 0" result="hardAlpha"/>
<feOffset dy="2"/>
<feGaussianBlur stdDeviation="2"/>
<feColorMatrix type="matrix" values="0 0 0 0 0 0 0 0 0 0 0 0 0 0 0 0 0 0 0.04 0"/>
<feBlend mode="normal" in2="BackgroundImageFix" result="effect1_dropShadow"/>
<feColorMatrix in="SourceAlpha" type="matrix" values="0 0 0 0 0 0 0 0 0 0 0 0 0 0 0 0 0 0 127 0" result="hardAlpha"/>
<feOffset dy="1"/>
<feGaussianBlur stdDeviation="1"/>
<feColorMatrix type="matrix" values="0 0 0 0 0 0 0 0 0 0 0 0 0 0 0 0 0 0 0.04 0"/>
<feBlend mode="normal" in2="effect1_dropShadow" result="effect2_dropShadow"/>
<feBlend mode="normal" in="SourceGraphic" in2="effect2_dropShadow" result="shape"/>
</filter>
<clipPath id="clip0">
<path d="M4 6.8077C4 4.15248 6.15248 2 8.80769 2H149.192C151.848 2 154 4.15248 154 6.80769V124.596C154 127.251 151.848 129.404 149.192 129.404H8.80769C6.15247 129.404 4 127.251 4 124.596V6.8077Z" fill="white"/>
</clipPath>
<clipPath id="clip1">
<rect width="72.1154" height="17.7885" fill="white" transform="translate(9.76953 7.52881)"/>
</clipPath>
</defs>
</svg>
