<svg viewBox="0 0 22 27" fill="none" xmlns="http://www.w3.org/2000/svg">
<path d="M21.2199 20.4146C20.8372 21.3 20.3839 22.1146 19.8585 22.864C19.1425 23.8866 18.5545 24.5933 18.1039 24.9866C17.4039 25.6293 16.6519 25.96 15.8479 25.9786C15.2719 25.9786 14.5759 25.8146 13.7652 25.4813C12.9519 25.1493 12.2052 24.9866 11.5212 24.9866C10.8052 24.9866 10.0372 25.1493 9.21453 25.4813C8.3932 25.8146 7.7292 25.9893 7.2212 26.0053C6.45186 26.0386 5.68253 25.7 4.91586 24.9866C4.42653 24.56 3.81453 23.8266 3.07986 22.7893C2.2932 21.684 1.64653 20.3973 1.13986 18.9346C0.597195 17.352 0.325195 15.8213 0.325195 14.3386C0.325195 12.6413 0.691862 11.176 1.42653 9.94928C2.0052 8.96262 2.7732 8.18528 3.7332 7.61462C4.69453 7.04262 5.73453 6.75062 6.8532 6.73195C7.46653 6.73195 8.27053 6.92128 9.26653 7.29462C10.2625 7.66795 10.9025 7.85728 11.1812 7.85728C11.3919 7.85728 12.0999 7.63462 13.3052 7.19328C14.4425 6.78395 15.4025 6.61462 16.1892 6.68128C18.3225 6.85328 19.9239 7.69328 20.9892 9.20795C19.0825 10.364 18.1399 11.9813 18.1585 14.0573C18.1745 15.6746 18.7625 17.02 19.9145 18.088C20.4372 18.584 21.0199 18.9666 21.6679 19.2386C21.5265 19.648 21.3772 20.0386 21.2199 20.4146ZM16.3305 1.17328C16.3305 2.43995 15.8665 3.62395 14.9452 4.71862C13.8305 6.01995 12.4839 6.77328 11.0239 6.65462C11.0052 6.50262 10.9959 6.34262 10.9959 6.17462C10.9959 4.95728 11.5239 3.65595 12.4665 2.59062C12.9359 2.05195 13.5332 1.60262 14.2572 1.24528C14.9799 0.893283 15.6625 0.698617 16.3052 0.665283C16.3225 0.83595 16.3305 1.00528 16.3305 1.17328Z" fill="#202945"/>
</svg>
