<svg width="32" height="32" viewBox="0 0 32 32" fill="none" xmlns="http://www.w3.org/2000/svg">
<g clip-path="url(#clip0)">
<path d="M15.9997 13.3333C21.301 13.3333 26.6663 11.5013 26.6663 7.99996C26.6663 4.49863 21.301 2.66663 15.9997 2.66663C10.6983 2.66663 5.33301 4.49863 5.33301 7.99996C5.33301 11.5013 10.6983 13.3333 15.9997 13.3333Z" fill="#FF7F32"/>
<path d="M5.33301 13.3333C5.33301 16.8346 10.6983 18.6666 15.9997 18.6666C21.301 18.6666 26.6663 16.8346 26.6663 13.3333V10.6666C26.6663 14.168 21.301 16 15.9997 16C10.6983 16 5.33301 14.168 5.33301 10.6666V13.3333Z" fill="#FF7F32"/>
<path d="M5.33301 18.6667C5.33301 22.168 10.6983 24 15.9997 24C21.301 24 26.6663 22.168 26.6663 18.6667V16C26.6663 19.5013 21.301 21.3333 15.9997 21.3333C10.6983 21.3333 5.33301 19.5013 5.33301 16V18.6667Z" fill="#FF7F32"/>
<path d="M5.33301 24C5.33301 27.5014 10.6983 29.3334 15.9997 29.3334C21.301 29.3334 26.6663 27.5014 26.6663 24V21.3334C26.6663 24.8347 21.301 26.6667 15.9997 26.6667C10.6983 26.6667 5.33301 24.8347 5.33301 21.3334V24Z" fill="#FF7F32"/>
</g>
<defs>
<clipPath id="clip0">
<rect width="32" height="32" fill="white"/>
</clipPath>
</defs>
</svg>
