<svg width="21" height="20" viewBox="0 0 21 20" fill="none" xmlns="http://www.w3.org/2000/svg">
<path d="M10.75 20C5.23 20 0.75 15.52 0.75 10C0.75 4.48 5.23 0 10.75 0C16.27 0 20.75 4.48 20.75 10C20.75 15.52 16.27 20 10.75 20ZM15.75 6C15.47 6 15.22 6.11 15.04 6.29L8.75 12.59L6.46 10.29C6.28 10.11 6.03 10 5.75 10C5.2 10 4.75 10.45 4.75 11C4.75 11.28 4.86 11.53 5.04 11.71L8.04 14.71C8.22 14.89 8.47 15 8.75 15C9.03 15 9.28 14.89 9.46 14.71L16.46 7.71C16.64 7.53 16.75 7.28 16.75 7C16.75 6.45 16.3 6 15.75 6Z" fill="white"/>
</svg>
