<svg width="29" height="24" viewBox="0 0 29 24" fill="none" xmlns="http://www.w3.org/2000/svg">
<path d="M25 0H10C9.37902 0 8.76657 0.14458 8.21115 0.422291C7.65572 0.700002 7.17259 1.10322 6.8 1.6L0.8 9.6C0.280711 10.2924 0 11.1345 0 12C0 12.8655 0.280711 13.7076 0.8 14.4L6.8 22.4C7.17259 22.8968 7.65572 23.3 8.21115 23.5777C8.76657 23.8554 9.37902 24 10 24H25C26.0609 24 27.0783 23.5786 27.8284 22.8284C28.5786 22.0783 29 21.0609 29 20V4C29 2.93913 28.5786 1.92172 27.8284 1.17157C27.0783 0.421427 26.0609 0 25 0ZM21.44 16.68C21.0258 17.0928 20.4648 17.3246 19.88 17.3246C19.2952 17.3246 18.7342 17.0928 18.32 16.68L16.76 15.12L15.2 16.68C14.7858 17.0928 14.2248 17.3246 13.64 17.3246C13.0552 17.3246 12.4942 17.0928 12.08 16.68C11.6672 16.2658 11.4354 15.7048 11.4354 15.12C11.4354 14.5352 11.6672 13.9742 12.08 13.56L13.64 12L12.08 10.44C11.6672 10.0258 11.4354 9.4648 11.4354 8.88C11.4354 8.2952 11.6672 7.73423 12.08 7.32C12.4942 6.9072 13.0552 6.67541 13.64 6.67541C14.2248 6.67541 14.7858 6.9072 15.2 7.32L16.76 8.88L18.32 7.32C18.7342 6.9072 19.2952 6.67541 19.88 6.67541C20.4648 6.67541 21.0258 6.9072 21.44 7.32C21.8528 7.73423 22.0846 8.2952 22.0846 8.88C22.0846 9.4648 21.8528 10.0258 21.44 10.44L19.88 12L21.44 13.56C21.8528 13.9742 22.0846 14.5352 22.0846 15.12C22.0846 15.7048 21.8528 16.2658 21.44 16.68Z" fill="#E7E6E6"/>
</svg>
