<svg width="32" height="32" viewBox="0 0 32 32" fill="none" xmlns="http://www.w3.org/2000/svg">
<path fill-rule="evenodd" clip-rule="evenodd" d="M16 0C10.736 0 6.112 2.56 3.2 6.48L3.2 3.2C3.2 2.32 2.48 1.6 1.6 1.6C0.72 1.6 0 2.32 0 3.2L0 9.6C0 10.48 0.72 11.2 1.6 11.2L8 11.2C8.88 11.2 9.6 10.48 9.6 9.6C9.6 8.72 8.88 8 8 8L6.016 8C8.368 5.072 11.952 3.2 16 3.2C23.072 3.2 28.8 8.928 28.8 16C28.8 23.072 23.072 28.8 16 28.8C8.928 28.8 3.2 23.072 3.2 16C3.2 15.12 2.48 14.4 1.6 14.4C0.72 14.4 0 15.12 0 16C0 24.832 7.168 32 16 32C24.832 32 32 24.832 32 16C32 7.168 24.832 0 16 0ZM16 4.8C15.12 4.8 14.4 5.52 14.4 6.4L14.4 16C14.4 16.448 14.576 16.848 14.864 17.136L19.664 21.936C19.952 22.224 20.352 22.4 20.8 22.4C21.68 22.4 22.4 21.68 22.4 20.8C22.4 20.352 22.224 19.952 21.936 19.664L17.6 15.344L17.6 6.4C17.6 5.52 16.88 4.8 16 4.8Z" fill="#FFAB79"/>
</svg>
