<svg width="22" height="32" viewBox="0 0 22 32" fill="none" xmlns="http://www.w3.org/2000/svg">
<path fill-rule="evenodd" clip-rule="evenodd" d="M20.9118 17.904C20.4798 17.088 19.9038 16.416 19.1998 15.888C18.4958 15.36 17.6798 14.928 16.7838 14.624C15.8878 14.304 14.9598 14.048 14.0318 13.824C13.0718 13.6 12.1278 13.408 11.2318 13.216C10.3198 13.008 9.5198 12.784 8.8158 12.512C8.1118 12.24 7.5358 11.904 7.1038 11.504C6.6718 11.104 6.4478 10.56 6.4478 9.904C6.4478 9.376 6.5918 8.944 6.8958 8.608C7.1998 8.272 7.5678 8.032 7.9998 7.856C8.4318 7.68 8.9118 7.568 9.4078 7.504C9.9038 7.44 10.3358 7.408 10.6878 7.408C11.8238 7.408 12.8478 7.632 13.7278 8.064C14.6078 8.496 15.1838 9.36 15.4238 10.656H20.7998C20.6558 9.312 20.2878 8.16 19.6958 7.2C19.1038 6.24 18.3678 5.472 17.4878 4.88C16.5918 4.288 15.5998 3.856 14.5118 3.584C14.2078 3.504 13.9038 3.472 13.5998 3.424V1.6C13.5998 0.72 12.8798 0 11.9998 0L10.3998 0C9.5198 0 8.7998 0.72 8.7998 1.6V3.36C8.4478 3.408 8.1118 3.44 7.7438 3.52C6.5758 3.728 5.5198 4.112 4.5758 4.656C3.6158 5.2 2.8318 5.936 2.2238 6.816C1.5998 7.712 1.2958 8.816 1.2958 10.144C1.2958 11.36 1.5038 12.4 1.9358 13.232C2.3518 14.064 2.9278 14.752 3.6318 15.28C4.3358 15.808 5.1358 16.24 6.0318 16.544C6.9118 16.864 7.8398 17.12 8.8158 17.344C9.7438 17.568 10.6718 17.76 11.5678 17.952C12.4638 18.144 13.2798 18.368 13.9838 18.64C14.6878 18.912 15.2638 19.264 15.7278 19.696C16.1758 20.128 16.4158 20.704 16.4478 21.392C16.4798 22.08 16.3198 22.64 15.9678 23.056C15.6158 23.472 15.1838 23.808 14.6398 24.016C14.0958 24.24 13.5198 24.384 12.8958 24.464C12.2718 24.544 11.7278 24.576 11.2478 24.576C9.8558 24.576 8.6718 24.256 7.6798 23.632C6.6878 23.008 6.1118 21.904 5.9678 20.336H0.799805C0.831805 21.776 1.1038 23.024 1.6318 24.08C2.1598 25.136 2.8798 26.016 3.7918 26.72C4.7038 27.424 5.7918 27.952 7.0398 28.288C7.5998 28.448 8.1758 28.544 8.7678 28.624V30.4C8.7678 31.28 9.4878 32 10.3678 32H11.9678C12.8478 32 13.5678 31.28 13.5678 30.4V28.592C13.9678 28.528 14.3678 28.48 14.7838 28.384C16.0158 28.096 17.1358 27.648 18.1438 27.024C19.1518 26.4 19.9678 25.584 20.6078 24.576C21.2478 23.568 21.5518 22.352 21.5518 20.912C21.5678 19.712 21.3438 18.72 20.9118 17.904Z" fill="#FF7F32"/>
</svg>
