<svg viewBox="0 0 32 32" fill="none" xmlns="http://www.w3.org/2000/svg">
<path d="M28.0004 16.2739C28.0004 15.3968 27.9203 14.5575 27.7715 13.7505H16.2559V18.3742L22.8879 18.3756C22.6189 19.9141 21.7532 21.2255 20.4268 22.0998V25.0996H24.3746C26.6797 23.0106 28.0004 19.9225 28.0004 16.2739Z" fill="#4285F4"/>
<path d="M20.4279 22.0998C19.329 22.8256 17.9139 23.2502 16.2584 23.2502C13.0604 23.2502 10.3475 21.1401 9.37595 18.2958H5.30371V21.3895C7.32123 25.3098 11.4679 28 16.2584 28C19.5694 28 22.351 26.9338 24.3757 25.0983L20.4279 22.0998Z" fill="#34A853"/>
<path d="M8.99228 16.0006C8.99228 15.202 9.12821 14.43 9.37575 13.7042V10.6105H5.30351C4.46932 12.2316 4 14.0615 4 16.0006C4 17.9398 4.47075 19.7697 5.30351 21.3908L9.37575 18.2971C9.12821 17.5713 8.99228 16.7993 8.99228 16.0006Z" fill="#FABB05"/>
<path d="M16.2584 8.74983C18.0656 8.74983 19.6839 9.35932 20.9617 10.5503L24.4601 7.12732C22.3353 5.18956 19.5651 4 16.2584 4C11.4693 4 7.32123 6.69017 5.30371 10.6105L9.37595 13.7042C10.3475 10.8599 13.0604 8.74983 16.2584 8.74983Z" fill="#E94235"/>
</svg>
