<svg width="28" height="20" viewBox="0 0 28 20" fill="none" xmlns="http://www.w3.org/2000/svg">
<path d="M13.9996 0.666748C3.82224 0.666748 0.763572 9.48942 0.735572 9.57875L0.594238 10.0001L0.734238 10.4214C0.763572 10.5107 3.82224 19.3334 13.9996 19.3334C24.1769 19.3334 27.2356 10.5107 27.2636 10.4214L27.4049 10.0001L27.2649 9.57875C27.2356 9.48942 24.1769 0.666748 13.9996 0.666748ZM13.9996 15.3334C11.0582 15.3334 8.66624 12.9414 8.66624 10.0001C8.66624 7.05875 11.0582 4.66675 13.9996 4.66675C16.9409 4.66675 19.3329 7.05875 19.3329 10.0001C19.3329 12.9414 16.9409 15.3334 13.9996 15.3334Z" fill="#BFBEC0"/>
</svg>
