<svg width="28" height="26" viewBox="0 0 28 26" fill="none" xmlns="http://www.w3.org/2000/svg">
<path d="M8.76433 13.2587L3.61633 8.11071C1.58966 10.32 0.821659 12.5334 0.808325 12.5787L0.666992 13L0.806992 13.4214C0.836326 13.5107 3.89499 22.3334 14.0723 22.3334C15.311 22.3334 16.439 22.1974 17.475 21.9694L13.8137 18.308C12.4954 18.2434 11.2483 17.6907 10.315 16.7574C9.38168 15.8241 8.82895 14.577 8.76433 13.2587ZM14.0723 3.66671C11.599 3.66671 9.57232 4.20537 7.88299 4.99737L2.94299 0.057373L1.05766 1.94271L25.0577 25.9427L26.943 24.0574L22.5457 19.66C26.063 17.056 27.3177 13.4774 27.3363 13.4214L27.4763 13L27.3363 12.5787C27.307 12.4894 24.2497 3.66671 14.0723 3.66671ZM16.6137 13.728C16.863 12.8254 16.651 11.8094 15.9577 11.1147C15.2643 10.42 14.247 10.2094 13.3443 10.4587L11.3337 8.44804C12.1576 7.94135 13.1051 7.67105 14.0723 7.66671C17.0137 7.66671 19.4057 10.0587 19.4057 13C19.4017 13.9671 19.1309 14.9144 18.623 15.7374L16.6137 13.728Z" fill="#BFBEC0"/>
</svg>
