<svg width="21" height="20" viewBox="0 0 21 20" fill="none" xmlns="http://www.w3.org/2000/svg">
<path fill-rule="evenodd" clip-rule="evenodd" d="M17.75 5C17.33 5 16.96 5.27 16.82 5.64L15.13 10H14.36L15.7 3.33C15.73 3.23 15.75 3.12 15.75 3C15.75 2.45 15.3 2 14.75 2C14.26 2 13.86 2.35 13.77 2.81H13.76L12.32 10H11.75V1C11.75 0.45 11.3 0 10.75 0C10.2 0 9.75 0.45 9.75 1V10H9.55L7.72 2.76C7.61 2.32 7.22 2 6.75 2C6.45 2 6.17 2.14 5.99 2.35C5.98 2.36 5.97 2.37 5.96 2.38C5.95 2.4 5.94 2.41 5.93 2.42C5.92 2.44 5.92 2.45 5.91 2.46C5.91 2.46 5.91 2.46 5.91 2.47C5.9 2.48 5.89 2.49 5.89 2.5V2.51C5.87 2.52 5.87 2.53 5.86 2.54C5.86 2.54 5.86 2.55 5.85 2.55C5.85 2.56 5.85 2.57 5.84 2.58C5.84 2.58 5.84 2.59 5.83 2.59C5.83 2.6 5.82 2.61 5.82 2.62C5.82 2.62 5.82 2.63 5.81 2.63C5.81 2.64 5.8 2.65 5.8 2.66C5.8 2.67 5.8 2.67 5.79 2.68C5.79 2.69 5.78 2.7 5.78 2.71C5.78 2.72 5.78 2.72 5.77 2.73C5.77 2.74 5.76 2.75 5.76 2.76C5.76 2.77 5.76 2.77 5.76 2.78C5.76 2.79 5.76 2.8 5.75 2.81C5.75 2.82 5.75 2.83 5.75 2.83C5.75 2.84 5.75 2.85 5.75 2.85C5.75 2.86 5.75 2.87 5.75 2.88C5.75 2.89 5.75 2.89 5.75 2.9C5.75 2.91 5.75 2.92 5.75 2.93C5.75 2.94 5.75 2.94 5.75 2.95C5.75 2.97 5.75 2.98 5.75 3C5.75 3.05 5.75 3.09 5.76 3.14L7.21 13.39L6.75 12.7V12.71L4.59 9.45H4.58C4.41 9.18 4.1 9 3.75 9C3.2 9 2.75 9.45 2.75 10C2.75 10.2 2.81 10.39 2.92 10.55L6.75 18.44C7.81 19.4 9.21 20 10.75 20C14.06 20 16.75 17.31 16.75 14V12.16L16.76 12.13V12.07L18.7 6.32C18.73 6.22 18.75 6.11 18.75 6C18.75 5.45 18.3 5 17.75 5Z" fill="#64656A"/>
</svg>
