<svg width="27" height="26" viewBox="0 0 27 26" fill="none" xmlns="http://www.w3.org/2000/svg">
<path d="M13.4999 0.200195C6.43115 0.200195 0.699951 5.9314 0.699951 13.0002C0.699951 20.069 6.43115 25.8002 13.4999 25.8002C20.5687 25.8002 26.2999 20.069 26.2999 13.0002C26.2999 5.9314 20.5687 0.200195 13.4999 0.200195ZM14.5666 19.4002H12.4333V11.9335H14.5666V19.4002ZM13.4999 9.26686C12.6167 9.26686 11.8999 8.55006 11.8999 7.66686C11.8999 6.78366 12.6167 6.06686 13.4999 6.06686C14.3831 6.06686 15.0999 6.78366 15.0999 7.66686C15.0999 8.55006 14.3831 9.26686 13.4999 9.26686Z" fill="#909093"/>
</svg>
