<svg width="81" height="67" viewBox="0 0 81 67" fill="none" xmlns="http://www.w3.org/2000/svg">
<path d="M66.7737 47.9313C65.8125 47.2809 64.4428 47.6 63.8269 48.6195C58.8456 56.8871 50.3675 61.8223 41.1488 61.8223C39.5833 61.8223 38.0027 61.676 36.4496 61.3852C36.4479 61.3852 36.4461 61.3833 36.4434 61.3833C24.6402 59.1791 15.7838 48.9754 14.3572 36.7251L20.8248 43.4256C21.64 44.2686 23.0409 44.2507 23.8419 43.3869C24.6625 42.4939 24.6456 41.0581 23.8054 40.1858L14.1222 30.1549C13.574 29.5885 12.8415 29.2656 12.1099 29.2656C12.0565 29.2656 12.004 29.2656 11.9711 29.2685C11.1772 29.2968 10.4154 29.6715 9.88225 30.2984L0.998272 40.7286C0.211512 41.6528 0.279152 43.0867 1.15135 43.9241C1.54473 44.2988 2.05292 44.5065 2.58069 44.5065C3.18233 44.5065 3.75905 44.2356 4.164 43.7617L10.0745 36.8214C11.5555 51.1957 21.8643 63.2279 35.6558 65.8305C35.6638 65.8324 35.67 65.8362 35.6771 65.8371C37.482 66.1732 39.3235 66.345 41.1471 66.345C51.8306 66.345 61.6535 60.631 67.4234 51.0579C68.0562 50.0062 67.7643 48.6044 66.7737 47.9313Z" fill="#FF7F32"/>
<path d="M79.7036 21.4438C78.7914 20.7132 77.4057 20.9208 76.7177 21.8847L71.5984 29.0666C69.9279 14.9198 59.7018 3.14153 46.0732 0.569134C46.0652 0.568191 46.059 0.564415 46.0527 0.563471C44.2478 0.225519 42.4055 0.0537109 40.5819 0.0537109C29.9019 0.0537109 20.0799 5.76869 14.3082 15.3418C14.0003 15.8516 13.8988 16.4576 14.0216 17.0485C14.1445 17.6376 14.4764 18.1417 14.9544 18.4664C15.297 18.7005 15.6939 18.8233 16.1033 18.8233C16.8358 18.8233 17.5078 18.4334 17.9011 17.7811C22.886 9.51448 31.366 4.58019 40.5864 4.58019C42.1501 4.58019 43.7289 4.72557 45.2802 5.01537C45.2829 5.01537 45.2856 5.01726 45.2882 5.01726C57.2169 7.24699 66.1391 17.647 67.4154 30.072L60.1512 23.7585C59.271 22.9967 57.8666 23.1487 57.1501 24.0766C56.4043 25.0404 56.5378 26.4687 57.4465 27.2588L67.9174 36.3552C68.4425 36.8112 69.1064 37.0632 69.7881 37.0632C69.9038 37.0632 70.0187 37.0566 70.1308 37.0434C70.922 36.9452 71.65 36.5015 72.1315 35.8247L80.1228 24.6156C80.8286 23.6188 80.6426 22.1962 79.7036 21.4438Z" fill="#FF7F32"/>
</svg>
