<svg width="18" height="18" viewBox="0 0 18 18" fill="none" xmlns="http://www.w3.org/2000/svg">
<path fill-rule="evenodd" clip-rule="evenodd" d="M16.1996 7.79998H10.1996V1.79998C10.1996 1.13998 9.65961 0.599976 8.99961 0.599976C8.33961 0.599976 7.79961 1.13998 7.79961 1.79998V7.79998H1.79961C1.13961 7.79998 0.599609 8.33998 0.599609 8.99998C0.599609 9.65998 1.13961 10.2 1.79961 10.2H7.79961V16.2C7.79961 16.86 8.33961 17.4 8.99961 17.4C9.65961 17.4 10.1996 16.86 10.1996 16.2V10.2H16.1996C16.8596 10.2 17.3996 9.65998 17.3996 8.99998C17.3996 8.33998 16.8596 7.79998 16.1996 7.79998Z" fill="#FF7F32"/>
</svg>
