<svg viewBox="0 0 28 28" fill="none" xmlns="http://www.w3.org/2000/svg">
<path d="M13.9993 0.666687C6.77135 0.666687 0.666016 6.77202 0.666016 14C0.666016 21.228 6.77135 27.3334 13.9993 27.3334C21.2274 27.3334 27.3327 21.228 27.3327 14C27.3327 6.77202 21.2274 0.666687 13.9993 0.666687ZM13.9993 7.33335C16.302 7.33335 17.9993 9.02935 17.9993 11.3334C17.9993 13.6374 16.302 15.3334 13.9993 15.3334C11.698 15.3334 9.99935 13.6374 9.99935 11.3334C9.99935 9.02935 11.698 7.33335 13.9993 7.33335ZM7.19135 20.3627C8.38735 18.6027 10.382 17.4294 12.666 17.4294H15.3327C17.618 17.4294 19.6114 18.6027 20.8074 20.3627C19.1034 22.1867 16.686 23.3334 13.9993 23.3334C11.3127 23.3334 8.89535 22.1867 7.19135 20.3627Z" fill="#FF7F32"/>
</svg>
