<svg width="28" height="28" viewBox="0 0 28 28" fill="none" xmlns="http://www.w3.org/2000/svg">
<path d="M14.0003 0.666626C6.64833 0.666626 0.666992 6.64796 0.666992 14C0.666992 21.352 6.64833 27.3333 14.0003 27.3333C21.3523 27.3333 27.3337 21.352 27.3337 14C27.3337 6.64796 21.3523 0.666626 14.0003 0.666626ZM15.3337 22L12.667 22V19.3333L15.3337 19.3333V22ZM16.635 15.4866C16.3737 15.6973 16.1217 15.8986 15.9217 16.0986C15.3777 16.6413 15.335 17.1346 15.3337 17.156V17.3333L12.667 17.3333V17.1106C12.667 16.9533 12.7057 15.5413 14.035 14.212C14.295 13.952 14.6177 13.688 14.9563 13.4133C15.935 12.62 16.5777 12.0413 16.5777 11.244C16.5622 10.5704 16.2837 9.92963 15.8017 9.45878C15.3198 8.98794 14.6728 8.72441 13.999 8.72459C13.3253 8.72476 12.6783 8.98863 12.1967 9.45972C11.715 9.93081 11.4368 10.5717 11.4217 11.2453H8.75499C8.75499 8.35329 11.1083 5.99996 14.0003 5.99996C16.8923 5.99996 19.2457 8.35329 19.2457 11.2453C19.2457 13.3746 17.6737 14.6453 16.635 15.4866Z" fill="#FF7F32"/>
</svg>
