<svg viewBox="0 0 20 20" fill="none" xmlns="http://www.w3.org/2000/svg">
<path fill-rule="evenodd" clip-rule="evenodd" d="M19 1C18.45 1 18 1.45 18 2V4.06C16.18 1.61 13.29 0 10 0C4.48 0 0 4.48 0 10C0 10.55 0.45 11 1 11C1.55 11 2 10.55 2 10C2 5.58 5.58 2 10 2C12.52 2 14.76 3.18 16.22 5H15C14.45 5 14 5.45 14 6C14 6.55 14.45 7 15 7H19C19.55 7 20 6.55 20 6V2C20 1.45 19.55 1 19 1ZM19 9C18.45 9 18 9.45 18 10C18 14.42 14.42 18 10 18C7.48 18 5.24 16.82 3.78 15H5C5.55 15 6 14.55 6 14C6 13.45 5.55 13 5 13H1C0.45 13 0 13.45 0 14V18C0 18.55 0.45 19 1 19C1.55 19 2 18.55 2 18V15.94C3.82 18.39 6.71 20 10 20C15.52 20 20 15.52 20 10C20 9.45 19.55 9 19 9Z" fill="white"/>
</svg>
